<svg width="24" height="25" viewBox="0 0 24 25" fill="none" xmlns="http://www.w3.org/2000/svg">
<g clip-path="url(#clip0_697_32)">
<path d="M12 24.5C18.6274 24.5 24 19.1274 24 12.5C24 5.87258 18.6274 0.5 12 0.5C5.37258 0.5 0 5.87258 0 12.5C0 19.1274 5.37258 24.5 12 24.5Z" fill="#F0F0F0"/>
<path d="M2.48056 5.19312C1.53795 6.41951 0.827189 7.83302 0.41333 9.3686H6.65605L2.48056 5.19312Z" fill="#0052B4"/>
<path d="M23.5869 9.3688C23.173 7.83327 22.4622 6.41975 21.5196 5.19336L17.3442 9.3688H23.5869Z" fill="#0052B4"/>
<path d="M0.41333 15.6304C0.827237 17.1659 1.538 18.5794 2.48057 19.8058L6.65591 15.6304H0.41333Z" fill="#0052B4"/>
<path d="M19.3053 2.97988C18.0789 2.03727 16.6655 1.3265 15.1299 0.912598V7.15527L19.3053 2.97988Z" fill="#0052B4"/>
<path d="M4.69385 22.0179C5.92024 22.9605 7.33376 23.6712 8.86929 24.0852V17.8425L4.69385 22.0179Z" fill="#0052B4"/>
<path d="M8.86924 0.912598C7.33371 1.3265 5.92019 2.03727 4.69385 2.97983L8.86924 7.15522V0.912598Z" fill="#0052B4"/>
<path d="M15.1299 24.0852C16.6654 23.6712 18.0789 22.9605 19.3053 22.0179L15.1299 17.8425V24.0852Z" fill="#0052B4"/>
<path d="M17.3442 15.6304L21.5196 19.8058C22.4622 18.5795 23.173 17.1659 23.5869 15.6304H17.3442Z" fill="#0052B4"/>
<path d="M23.8984 10.9348H13.5653H13.5653V0.601578C13.0529 0.534875 12.5305 0.5 12 0.5C11.4694 0.5 10.9471 0.534875 10.4348 0.601578V10.9347V10.9347H0.101578C0.034875 11.4471 0 11.9695 0 12.5C0 13.0306 0.034875 13.5529 0.101578 14.0652H10.4347H10.4347V24.3984C10.9471 24.4651 11.4694 24.5 12 24.5C12.5305 24.5 13.0529 24.4652 13.5652 24.3984V14.0653V14.0653H23.8984C23.9651 13.5529 24 13.0306 24 12.5C24 11.9695 23.9651 11.4471 23.8984 10.9348Z" fill="#D80027"/>
<path d="M15.1304 15.6312L20.4852 20.986C20.7315 20.7398 20.9664 20.4824 21.1906 20.2156L16.6061 15.6311H15.1304V15.6312Z" fill="#D80027"/>
<path d="M8.86951 15.6311H8.86941L3.51465 20.9859C3.76084 21.2322 4.01823 21.4671 4.28504 21.6912L8.86951 17.1067V15.6311Z" fill="#D80027"/>
<path d="M8.86927 9.36911V9.36902L3.51446 4.01416C3.26818 4.26035 3.03324 4.51774 2.80908 4.78455L7.3936 9.36907H8.86927V9.36911Z" fill="#D80027"/>
<path d="M15.1304 9.37029L20.4852 4.01539C20.239 3.76911 19.9817 3.53417 19.7148 3.31006L15.1304 7.89457V9.37029Z" fill="#D80027"/>
</g>
<defs>
<clipPath id="clip0_697_32">
<rect width="24" height="24" fill="white" transform="translate(0 0.5)"/>
</clipPath>
</defs>
</svg>
