<svg width="35" height="35" viewBox="0 0 35 35" fill="none" xmlns="http://www.w3.org/2000/svg">
<rect width="35" height="35" rx="17.5" fill="url(#paint0_linear_661_154)"/>
<circle cx="17.5" cy="17.5" r="17.5" fill="white" fill-opacity="0.2"/>
<path fill-rule="evenodd" clip-rule="evenodd" d="M18 12.2139C18.9321 12.1801 19.8655 12.2052 20.7942 12.289C21.2447 12.2836 21.6922 12.36 22.1136 12.5142C22.6949 12.776 23.162 13.2274 23.4329 13.7891C23.5925 14.1962 23.6716 14.6287 23.6661 15.064C23.6661 15.739 23.7438 15.9643 23.7438 17.764C23.7787 18.6647 23.7528 19.5666 23.6661 20.464C23.6716 20.8993 23.5925 21.3317 23.4329 21.7389C23.162 22.3006 22.6949 22.752 22.1136 23.0137C21.6922 23.168 21.2447 23.2444 20.7942 23.239C20.0956 23.239 19.8625 23.3141 18 23.3141C17.0679 23.3479 16.1345 23.3228 15.2058 23.239C14.7553 23.2444 14.3078 23.168 13.8864 23.0137C13.3051 22.752 12.838 22.3006 12.5671 21.7389C12.4075 21.3317 12.3284 20.8993 12.3339 20.464C12.3339 19.789 12.2562 19.5637 12.2562 17.764C12.2213 16.8633 12.2472 15.9614 12.3339 15.064C12.3284 14.6287 12.4075 14.1962 12.5671 13.7891C12.7025 13.511 12.8862 13.2573 13.1102 13.039C13.2921 12.7766 13.569 12.5894 13.8864 12.5142C14.3078 12.36 14.7553 12.2836 15.2058 12.289C16.1345 12.2052 17.0679 12.1801 18 12.2139ZM18 11.0141C17.042 10.9811 16.0828 11.0061 15.1281 11.0892C14.545 11.0878 13.9665 11.1893 13.421 11.3887C12.9501 11.5372 12.5238 11.7947 12.1794 12.1388C11.8228 12.4717 11.556 12.8839 11.4022 13.3394C11.1588 13.8558 11.0522 14.4227 11.0923 14.9889C11.0064 15.9115 10.9804 16.8383 11.0146 17.764C10.9804 18.6897 11.0064 19.6165 11.0923 20.5391C11.091 21.1029 11.1964 21.6622 11.4031 22.1894C11.5568 22.6445 11.8233 23.0564 12.1794 23.3892C12.5238 23.7333 12.9501 23.9908 13.421 24.1393C13.9667 24.3391 14.5455 24.4409 15.129 24.4397C16.0834 24.5224 17.0423 24.5472 18 24.5139C18.958 24.5469 19.9172 24.5218 20.8719 24.4388C21.4554 24.44 22.0342 24.3382 22.5798 24.1385C23.0473 23.9828 23.472 23.7264 23.8216 23.3885C24.1713 23.0507 24.4367 22.6403 24.5978 22.1886C24.8045 21.6613 24.9098 21.102 24.9086 20.5382C24.9077 19.789 24.9854 19.5637 24.9854 17.764C25.0196 16.8383 24.9936 15.9115 24.9077 14.9889C24.909 14.4251 24.8036 13.8658 24.5969 13.3386C24.4432 12.8835 24.1767 12.4716 23.8206 12.1388C23.4762 11.7947 23.0499 11.5372 22.579 11.3887C22.0335 11.1893 21.455 11.0878 20.8719 11.0892C19.9172 11.0061 18.958 10.9811 18 11.0141ZM18 14.3139C17.529 14.3064 17.0612 14.3905 16.6245 14.5612C16.1878 14.7319 15.7911 14.9858 15.458 15.3077C15.1248 15.6295 14.8621 16.0129 14.6855 16.4349C14.5088 16.8568 14.4218 17.3088 14.4296 17.764C14.4296 18.4463 14.639 19.1134 15.0313 19.6807C15.4236 20.2481 15.9812 20.6903 16.6337 20.9514C17.2861 21.2126 18.004 21.2809 18.6966 21.1478C19.3892 21.0146 20.0253 20.686 20.5247 20.2035C21.024 19.721 21.3641 19.1063 21.5018 18.4371C21.6396 17.7678 21.5689 17.0741 21.2987 16.4437C21.0284 15.8133 20.5708 15.2745 19.9836 14.8954C19.3965 14.5163 18.7062 14.3139 18 14.3139ZM18 20.0142C17.6926 20.0197 17.3872 19.9653 17.1021 19.8542C16.817 19.743 16.558 19.5775 16.3406 19.3674C16.1233 19.1573 15.9519 18.9071 15.8369 18.6316C15.7219 18.3561 15.6655 18.061 15.6712 17.764C15.6655 17.467 15.7219 17.1719 15.8369 16.8964C15.9519 16.6209 16.1233 16.3706 16.3406 16.1606C16.558 15.9505 16.817 15.785 17.1021 15.6738C17.3872 15.5627 17.6926 15.5082 18 15.5137C18.3074 15.5082 18.6128 15.5627 18.8979 15.6738C19.183 15.785 19.442 15.9505 19.6594 16.1606C19.8767 16.3706 20.0481 16.6209 20.1631 16.8964C20.2781 17.1719 20.3345 17.467 20.3288 17.764C20.3345 18.061 20.2781 18.3561 20.1631 18.6316C20.0481 18.9071 19.8767 19.1573 19.6594 19.3674C19.442 19.5775 19.183 19.743 18.8979 19.8542C18.6128 19.9653 18.3074 20.0197 18 20.0142ZM21.7259 13.3394C21.557 13.3394 21.3919 13.3878 21.2514 13.4785C21.111 13.5692 21.0015 13.698 20.9369 13.8488C20.8723 13.9996 20.8554 14.1655 20.8883 14.3256C20.9213 14.4856 21.0026 14.6327 21.122 14.7481C21.2414 14.8635 21.3936 14.9421 21.5593 14.9739C21.7249 15.0058 21.8966 14.9894 22.0527 14.927C22.2087 14.8645 22.3421 14.7587 22.4359 14.623C22.5298 14.4873 22.5798 14.3278 22.5798 14.1646C22.578 13.9463 22.4875 13.7374 22.3277 13.5831C22.1679 13.4287 21.9518 13.3412 21.7259 13.3394Z" fill="white"/>
<defs>
<linearGradient id="paint0_linear_661_154" x1="0" y1="17.5" x2="35" y2="17.5" gradientUnits="userSpaceOnUse">
<stop stop-color="#3494E6"/>
<stop offset="1" stop-color="#EC6EAD"/>
</linearGradient>
</defs>
</svg>
