<svg width="22" height="22" viewBox="0 0 22 22" fill="none" xmlns="http://www.w3.org/2000/svg">
<path d="M18.9015 7.74591C17.939 3.51091 14.2448 1.60425 10.9998 1.60425C10.9998 1.60425 10.9998 1.60425 10.9907 1.60425C7.75484 1.60425 4.05151 3.50175 3.08901 7.73675C2.01651 12.4667 4.91318 16.4726 7.53484 18.9934C8.50651 19.9284 9.75318 20.3959 10.9998 20.3959C12.2465 20.3959 13.4932 19.9284 14.4557 18.9934C17.0773 16.4726 19.974 12.4759 18.9015 7.74591ZM10.9998 12.3384C9.40484 12.3384 8.11234 11.0459 8.11234 9.45091C8.11234 7.85591 9.40484 6.56341 10.9998 6.56341C12.5948 6.56341 13.8873 7.85591 13.8873 9.45091C13.8873 11.0459 12.5948 12.3384 10.9998 12.3384Z" fill="white"/>
</svg>
