<svg width="102" height="37" viewBox="0 0 102 37" fill="none" xmlns="http://www.w3.org/2000/svg">
<path d="M4.232 12.5996C3.54933 12.5996 2.928 12.4343 2.368 12.1036C1.81333 11.7729 1.37333 11.3303 1.048 10.7756C0.722667 10.2156 0.56 9.60227 0.56 8.9356H1.68C1.68 9.3996 1.79467 9.82627 2.024 10.2156C2.25333 10.5996 2.56 10.9063 2.944 11.1356C3.33333 11.3649 3.76267 11.4796 4.232 11.4796C4.696 11.4796 5.12 11.3649 5.504 11.1356C5.888 10.9063 6.19467 10.5996 6.424 10.2156C6.65867 9.82627 6.776 9.3996 6.776 8.9356C6.776 8.46627 6.664 8.0396 6.44 7.6556C6.22133 7.26627 5.90933 6.95693 5.504 6.7276C5.104 6.49293 4.62667 6.3756 4.072 6.3756H1.352L2.408 1.1916H7.648V2.3116H3.312L2.728 5.2556L4.032 5.2636C4.79467 5.27427 5.464 5.43693 6.04 5.7516C6.62133 6.06627 7.07467 6.49827 7.4 7.0476C7.73067 7.5916 7.896 8.22093 7.896 8.9356C7.896 9.43693 7.8 9.90893 7.608 10.3516C7.42133 10.7943 7.15733 11.1863 6.816 11.5276C6.48 11.8636 6.09067 12.1276 5.648 12.3196C5.21067 12.5063 4.73867 12.5996 4.232 12.5996ZM13.151 12.5996C12.479 12.5996 11.879 12.4503 11.351 12.1516C10.823 11.8476 10.3723 11.4289 9.999 10.8956C9.62567 10.3623 9.34033 9.74627 9.143 9.0476C8.951 8.3436 8.855 7.5916 8.855 6.7916C8.855 5.9916 8.951 5.2396 9.143 4.5356C9.34033 3.8316 9.62567 3.2156 9.999 2.6876C10.3723 2.15427 10.823 1.73827 11.351 1.4396C11.879 1.1356 12.479 0.983601 13.151 0.983601C13.8177 0.983601 14.415 1.1356 14.943 1.4396C15.471 1.73827 15.919 2.15427 16.287 2.6876C16.655 3.2156 16.935 3.8316 17.127 4.5356C17.3243 5.2396 17.423 5.9916 17.423 6.7916C17.423 7.5916 17.3243 8.3436 17.127 9.0476C16.935 9.74627 16.655 10.3623 16.287 10.8956C15.919 11.4289 15.471 11.8476 14.943 12.1516C14.415 12.4503 13.8177 12.5996 13.151 12.5996ZM13.151 11.4796C13.855 11.4796 14.4443 11.2636 14.919 10.8316C15.399 10.3996 15.759 9.82893 15.999 9.1196C16.239 8.40493 16.359 7.62893 16.359 6.7916C16.359 5.90627 16.2337 5.1116 15.983 4.4076C15.7377 3.69827 15.375 3.13827 14.895 2.7276C14.4203 2.3116 13.839 2.1036 13.151 2.1036C12.607 2.1036 12.1323 2.22893 11.727 2.4796C11.3217 2.73027 10.9857 3.07427 10.719 3.5116C10.4523 3.94893 10.2523 4.45027 10.119 5.0156C9.98567 5.5756 9.919 6.1676 9.919 6.7916C9.919 7.63427 10.0417 8.41293 10.287 9.1276C10.5323 9.83693 10.895 10.4076 11.375 10.8396C11.855 11.2663 12.447 11.4796 13.151 11.4796ZM20.7303 5.9276C20.3249 5.9276 19.9569 5.82893 19.6263 5.6316C19.2956 5.42893 19.0316 5.16227 18.8343 4.8316C18.6423 4.50093 18.5463 4.14093 18.5463 3.7516C18.5463 3.3516 18.6423 2.98893 18.8343 2.6636C19.0316 2.33293 19.2956 2.06893 19.6263 1.8716C19.9569 1.67427 20.3249 1.5756 20.7303 1.5756C21.1409 1.5756 21.5089 1.67693 21.8343 1.8796C22.1649 2.07693 22.4263 2.34093 22.6183 2.6716C22.8103 2.99693 22.9062 3.35693 22.9062 3.7516C22.9062 4.15693 22.8076 4.52493 22.6102 4.8556C22.4129 5.18627 22.1489 5.4476 21.8183 5.6396C21.4876 5.8316 21.1249 5.9276 20.7303 5.9276ZM20.7303 4.8076C21.0236 4.8076 21.2716 4.70627 21.4743 4.5036C21.6823 4.2956 21.7863 4.04493 21.7863 3.7516C21.7863 3.45293 21.6823 3.20227 21.4743 2.9996C21.2716 2.79693 21.0236 2.6956 20.7303 2.6956C20.4369 2.6956 20.1863 2.79693 19.9783 2.9996C19.7703 3.20227 19.6663 3.45293 19.6663 3.7516C19.6663 4.04493 19.7703 4.2956 19.9783 4.5036C20.1863 4.70627 20.4369 4.8076 20.7303 4.8076ZM27.4749 12.5996C26.7922 12.5996 26.1922 12.4503 25.6749 12.1516C25.1575 11.8476 24.7522 11.4423 24.4589 10.9356C24.1709 10.4289 24.0269 9.86893 24.0269 9.2556H25.1469C25.1469 9.66093 25.2402 10.0343 25.4269 10.3756C25.6189 10.7116 25.8882 10.9809 26.2349 11.1836C26.5815 11.3809 26.9949 11.4796 27.4749 11.4796C27.8802 11.4796 28.2589 11.3809 28.6109 11.1836C28.9682 10.9809 29.2562 10.7116 29.4749 10.3756C29.6989 10.0343 29.8109 9.66093 29.8109 9.2556C29.8109 8.74893 29.6829 8.3276 29.4269 7.9916C29.1709 7.65027 28.8189 7.39693 28.3709 7.2316C27.9229 7.06093 27.4109 6.9756 26.8349 6.9756V6.0476C27.6295 6.0476 28.2669 5.8796 28.7469 5.5436C29.2322 5.20227 29.4749 4.7036 29.4749 4.0476C29.4749 3.69027 29.3762 3.36493 29.1789 3.0716C28.9869 2.77827 28.7335 2.5436 28.4189 2.3676C28.1095 2.18627 27.7762 2.0956 27.4189 2.0956C27.0615 2.0956 26.7175 2.18627 26.3869 2.3676C26.0615 2.5436 25.7949 2.77827 25.5869 3.0716C25.3842 3.36493 25.2829 3.69027 25.2829 4.0476H24.1629C24.1629 3.62627 24.2509 3.2316 24.4269 2.8636C24.6029 2.49027 24.8429 2.16227 25.1469 1.8796C25.4509 1.59693 25.7975 1.3756 26.1869 1.2156C26.5762 1.0556 26.9842 0.975601 27.4109 0.975601C27.9709 0.975601 28.4909 1.11427 28.9709 1.3916C29.4562 1.66893 29.8482 2.0396 30.1469 2.5036C30.4455 2.9676 30.5949 3.48227 30.5949 4.0476C30.5949 4.59693 30.4535 5.09293 30.1709 5.5356C29.8882 5.97827 29.5069 6.29027 29.0269 6.4716C29.4429 6.61027 29.7922 6.82093 30.0749 7.1036C30.3575 7.38093 30.5709 7.7036 30.7149 8.0716C30.8589 8.4396 30.9309 8.83427 30.9309 9.2556C30.9309 9.86893 30.7709 10.4289 30.4509 10.9356C30.1309 11.4423 29.7069 11.8476 29.1789 12.1516C28.6562 12.4503 28.0882 12.5996 27.4749 12.5996ZM35.3343 12.5996C34.6516 12.5996 34.0516 12.4503 33.5343 12.1516C33.0169 11.8476 32.6116 11.4423 32.3183 10.9356C32.0303 10.4289 31.8863 9.86893 31.8863 9.2556H33.0063C33.0063 9.66093 33.0996 10.0343 33.2863 10.3756C33.4783 10.7116 33.7476 10.9809 34.0943 11.1836C34.4409 11.3809 34.8543 11.4796 35.3343 11.4796C35.7396 11.4796 36.1183 11.3809 36.4703 11.1836C36.8276 10.9809 37.1156 10.7116 37.3343 10.3756C37.5583 10.0343 37.6703 9.66093 37.6703 9.2556C37.6703 8.74893 37.5423 8.3276 37.2863 7.9916C37.0303 7.65027 36.6783 7.39693 36.2303 7.2316C35.7823 7.06093 35.2703 6.9756 34.6943 6.9756V6.0476C35.4889 6.0476 36.1263 5.8796 36.6063 5.5436C37.0916 5.20227 37.3343 4.7036 37.3343 4.0476C37.3343 3.69027 37.2356 3.36493 37.0383 3.0716C36.8463 2.77827 36.5929 2.5436 36.2783 2.3676C35.9689 2.18627 35.6356 2.0956 35.2783 2.0956C34.9209 2.0956 34.5769 2.18627 34.2463 2.3676C33.9209 2.5436 33.6543 2.77827 33.4463 3.0716C33.2436 3.36493 33.1423 3.69027 33.1423 4.0476H32.0223C32.0223 3.62627 32.1103 3.2316 32.2863 2.8636C32.4623 2.49027 32.7023 2.16227 33.0063 1.8796C33.3103 1.59693 33.6569 1.3756 34.0463 1.2156C34.4356 1.0556 34.8436 0.975601 35.2703 0.975601C35.8303 0.975601 36.3503 1.11427 36.8303 1.3916C37.3156 1.66893 37.7076 2.0396 38.0063 2.5036C38.3049 2.9676 38.4543 3.48227 38.4543 4.0476C38.4543 4.59693 38.3129 5.09293 38.0303 5.5356C37.7476 5.97827 37.3663 6.29027 36.8863 6.4716C37.3023 6.61027 37.6516 6.82093 37.9343 7.1036C38.2169 7.38093 38.4303 7.7036 38.5743 8.0716C38.7183 8.4396 38.7903 8.83427 38.7903 9.2556C38.7903 9.86893 38.6303 10.4289 38.3103 10.9356C37.9903 11.4423 37.5663 11.8476 37.0383 12.1516C36.5156 12.4503 35.9476 12.5996 35.3343 12.5996ZM39.8496 5.3676V1.1916H40.7056V5.3676H39.8496ZM45.2249 12.5996C44.5422 12.5996 43.9422 12.4503 43.4249 12.1516C42.9075 11.8476 42.5022 11.4423 42.2089 10.9356C41.9209 10.4289 41.7769 9.86893 41.7769 9.2556H42.8969C42.8969 9.66093 42.9902 10.0343 43.1769 10.3756C43.3689 10.7116 43.6382 10.9809 43.9849 11.1836C44.3315 11.3809 44.7449 11.4796 45.2249 11.4796C45.6302 11.4796 46.0089 11.3809 46.3609 11.1836C46.7182 10.9809 47.0062 10.7116 47.2249 10.3756C47.4489 10.0343 47.5609 9.66093 47.5609 9.2556C47.5609 8.74893 47.4329 8.3276 47.1769 7.9916C46.9209 7.65027 46.5689 7.39693 46.1209 7.2316C45.6729 7.06093 45.1609 6.9756 44.5849 6.9756V6.0476C45.3795 6.0476 46.0169 5.8796 46.4969 5.5436C46.9822 5.20227 47.2249 4.7036 47.2249 4.0476C47.2249 3.69027 47.1262 3.36493 46.9289 3.0716C46.7369 2.77827 46.4835 2.5436 46.1689 2.3676C45.8595 2.18627 45.5262 2.0956 45.1689 2.0956C44.8115 2.0956 44.4675 2.18627 44.1369 2.3676C43.8115 2.5436 43.5449 2.77827 43.3369 3.0716C43.1342 3.36493 43.0329 3.69027 43.0329 4.0476H41.9129C41.9129 3.62627 42.0009 3.2316 42.1769 2.8636C42.3529 2.49027 42.5929 2.16227 42.8969 1.8796C43.2009 1.59693 43.5475 1.3756 43.9369 1.2156C44.3262 1.0556 44.7342 0.975601 45.1609 0.975601C45.7209 0.975601 46.2409 1.11427 46.7209 1.3916C47.2062 1.66893 47.5982 2.0396 47.8969 2.5036C48.1955 2.9676 48.3449 3.48227 48.3449 4.0476C48.3449 4.59693 48.2035 5.09293 47.9209 5.5356C47.6382 5.97827 47.2569 6.29027 46.7769 6.4716C47.1929 6.61027 47.5422 6.82093 47.8249 7.1036C48.1075 7.38093 48.3209 7.7036 48.4649 8.0716C48.6089 8.4396 48.6809 8.83427 48.6809 9.2556C48.6809 9.86893 48.5209 10.4289 48.2009 10.9356C47.8809 11.4423 47.4569 11.8476 46.9289 12.1516C46.4062 12.4503 45.8382 12.5996 45.2249 12.5996ZM51.9723 12.3916L54.4443 8.1116C53.8789 8.32493 53.3136 8.3916 52.7483 8.3116C52.1829 8.22627 51.6656 8.0236 51.1963 7.7036C50.7269 7.37827 50.3483 6.96227 50.0603 6.4556C49.7776 5.9436 49.6363 5.3676 49.6363 4.7276C49.6363 4.2156 49.7323 3.73293 49.9243 3.2796C50.1216 2.82627 50.3909 2.42893 50.7323 2.0876C51.0736 1.74093 51.4683 1.4716 51.9163 1.2796C52.3696 1.08227 52.8549 0.983601 53.3723 0.983601C54.0549 0.983601 54.6763 1.15427 55.2363 1.4956C55.8016 1.8316 56.2523 2.28227 56.5883 2.8476C56.9296 3.41293 57.1003 4.0396 57.1003 4.7276C57.1003 5.11693 57.0523 5.45293 56.9563 5.7356C56.8656 6.01293 56.7269 6.32493 56.5403 6.6716L53.2603 12.3916H51.9723ZM53.3563 7.3516C53.8629 7.3516 54.3136 7.2316 54.7083 6.9916C55.1083 6.74627 55.4229 6.4236 55.6523 6.0236C55.8816 5.6236 55.9963 5.19427 55.9963 4.7356C55.9963 4.23427 55.8736 3.78627 55.6283 3.3916C55.3883 2.9916 55.0683 2.67693 54.6683 2.4476C54.2683 2.21293 53.8363 2.0956 53.3723 2.0956C52.8603 2.0956 52.4043 2.21827 52.0043 2.4636C51.6096 2.70893 51.2976 3.03427 51.0683 3.4396C50.8443 3.8396 50.7323 4.2716 50.7323 4.7356C50.7323 5.2156 50.8496 5.6556 51.0843 6.0556C51.3189 6.45027 51.6336 6.76493 52.0283 6.9996C52.4283 7.23427 52.8709 7.3516 53.3563 7.3516ZM58.8501 12.5996C58.6741 12.5996 58.5248 12.5356 58.4021 12.4076C58.2795 12.2849 58.2181 12.1329 58.2181 11.9516C58.2181 11.7809 58.2795 11.6343 58.4021 11.5116C58.5248 11.3836 58.6741 11.3196 58.8501 11.3196C59.0315 11.3196 59.1835 11.3836 59.3061 11.5116C59.4341 11.6343 59.4981 11.7809 59.4981 11.9516C59.4981 12.1329 59.4341 12.2849 59.3061 12.4076C59.1835 12.5356 59.0315 12.5996 58.8501 12.5996ZM64.3811 12.5996C63.6985 12.5996 63.0985 12.4503 62.5811 12.1516C62.0638 11.8476 61.6585 11.4423 61.3651 10.9356C61.0771 10.4289 60.9331 9.86893 60.9331 9.2556H62.0531C62.0531 9.66093 62.1465 10.0343 62.3331 10.3756C62.5251 10.7116 62.7945 10.9809 63.1411 11.1836C63.4878 11.3809 63.9011 11.4796 64.3811 11.4796C64.7865 11.4796 65.1651 11.3809 65.5171 11.1836C65.8745 10.9809 66.1625 10.7116 66.3811 10.3756C66.6051 10.0343 66.7171 9.66093 66.7171 9.2556C66.7171 8.74893 66.5891 8.3276 66.3331 7.9916C66.0771 7.65027 65.7251 7.39693 65.2771 7.2316C64.8291 7.06093 64.3171 6.9756 63.7411 6.9756V6.0476C64.5358 6.0476 65.1731 5.8796 65.6531 5.5436C66.1385 5.20227 66.3811 4.7036 66.3811 4.0476C66.3811 3.69027 66.2825 3.36493 66.0851 3.0716C65.8931 2.77827 65.6398 2.5436 65.3251 2.3676C65.0158 2.18627 64.6825 2.0956 64.3251 2.0956C63.9678 2.0956 63.6238 2.18627 63.2931 2.3676C62.9678 2.5436 62.7011 2.77827 62.4931 3.0716C62.2905 3.36493 62.1891 3.69027 62.1891 4.0476H61.0691C61.0691 3.62627 61.1571 3.2316 61.3331 2.8636C61.5091 2.49027 61.7491 2.16227 62.0531 1.8796C62.3571 1.59693 62.7038 1.3756 63.0931 1.2156C63.4825 1.0556 63.8905 0.975601 64.3171 0.975601C64.8771 0.975601 65.3971 1.11427 65.8771 1.3916C66.3625 1.66893 66.7545 2.0396 67.0531 2.5036C67.3518 2.9676 67.5011 3.48227 67.5011 4.0476C67.5011 4.59693 67.3598 5.09293 67.0771 5.5356C66.7945 5.97827 66.4131 6.29027 65.9331 6.4716C66.3491 6.61027 66.6985 6.82093 66.9811 7.1036C67.2638 7.38093 67.4771 7.7036 67.6211 8.0716C67.7651 8.4396 67.8371 8.83427 67.8371 9.2556C67.8371 9.86893 67.6771 10.4289 67.3571 10.9356C67.0371 11.4423 66.6131 11.8476 66.0851 12.1516C65.5625 12.4503 64.9945 12.5996 64.3811 12.5996ZM71.1285 12.3916L73.6005 8.1116C73.0352 8.32493 72.4698 8.3916 71.9045 8.3116C71.3392 8.22627 70.8218 8.0236 70.3525 7.7036C69.8832 7.37827 69.5045 6.96227 69.2165 6.4556C68.9338 5.9436 68.7925 5.3676 68.7925 4.7276C68.7925 4.2156 68.8885 3.73293 69.0805 3.2796C69.2778 2.82627 69.5472 2.42893 69.8885 2.0876C70.2298 1.74093 70.6245 1.4716 71.0725 1.2796C71.5258 1.08227 72.0112 0.983601 72.5285 0.983601C73.2112 0.983601 73.8325 1.15427 74.3925 1.4956C74.9578 1.8316 75.4085 2.28227 75.7445 2.8476C76.0858 3.41293 76.2565 4.0396 76.2565 4.7276C76.2565 5.11693 76.2085 5.45293 76.1125 5.7356C76.0218 6.01293 75.8832 6.32493 75.6965 6.6716L72.4165 12.3916H71.1285ZM72.5125 7.3516C73.0192 7.3516 73.4698 7.2316 73.8645 6.9916C74.2645 6.74627 74.5792 6.4236 74.8085 6.0236C75.0378 5.6236 75.1525 5.19427 75.1525 4.7356C75.1525 4.23427 75.0298 3.78627 74.7845 3.3916C74.5445 2.9916 74.2245 2.67693 73.8245 2.4476C73.4245 2.21293 72.9925 2.0956 72.5285 2.0956C72.0165 2.0956 71.5605 2.21827 71.1605 2.4636C70.7658 2.70893 70.4538 3.03427 70.2245 3.4396C70.0005 3.8396 69.8885 4.2716 69.8885 4.7356C69.8885 5.2156 70.0058 5.6556 70.2405 6.0556C70.4752 6.45027 70.7898 6.76493 71.1845 6.9996C71.5845 7.23427 72.0272 7.3516 72.5125 7.3516ZM80.6624 12.5996C79.9797 12.5996 79.3797 12.4503 78.8624 12.1516C78.345 11.8476 77.9397 11.4423 77.6464 10.9356C77.3584 10.4289 77.2144 9.86893 77.2144 9.2556H78.3344C78.3344 9.66093 78.4277 10.0343 78.6144 10.3756C78.8064 10.7116 79.0757 10.9809 79.4224 11.1836C79.769 11.3809 80.1824 11.4796 80.6624 11.4796C81.0677 11.4796 81.4464 11.3809 81.7984 11.1836C82.1557 10.9809 82.4437 10.7116 82.6624 10.3756C82.8864 10.0343 82.9984 9.66093 82.9984 9.2556C82.9984 8.74893 82.8704 8.3276 82.6144 7.9916C82.3584 7.65027 82.0064 7.39693 81.5584 7.2316C81.1104 7.06093 80.5984 6.9756 80.0224 6.9756V6.0476C80.817 6.0476 81.4544 5.8796 81.9344 5.5436C82.4197 5.20227 82.6624 4.7036 82.6624 4.0476C82.6624 3.69027 82.5637 3.36493 82.3664 3.0716C82.1744 2.77827 81.921 2.5436 81.6064 2.3676C81.297 2.18627 80.9637 2.0956 80.6064 2.0956C80.249 2.0956 79.905 2.18627 79.5744 2.3676C79.249 2.5436 78.9824 2.77827 78.7744 3.0716C78.5717 3.36493 78.4704 3.69027 78.4704 4.0476H77.3504C77.3504 3.62627 77.4384 3.2316 77.6144 2.8636C77.7904 2.49027 78.0304 2.16227 78.3344 1.8796C78.6384 1.59693 78.985 1.3756 79.3744 1.2156C79.7637 1.0556 80.1717 0.975601 80.5984 0.975601C81.1584 0.975601 81.6784 1.11427 82.1584 1.3916C82.6437 1.66893 83.0357 2.0396 83.3344 2.5036C83.633 2.9676 83.7824 3.48227 83.7824 4.0476C83.7824 4.59693 83.641 5.09293 83.3584 5.5356C83.0757 5.97827 82.6944 6.29027 82.2144 6.4716C82.6304 6.61027 82.9797 6.82093 83.2624 7.1036C83.545 7.38093 83.7584 7.7036 83.9024 8.0716C84.0464 8.4396 84.1184 8.83427 84.1184 9.2556C84.1184 9.86893 83.9584 10.4289 83.6384 10.9356C83.3184 11.4423 82.8944 11.8476 82.3664 12.1516C81.8437 12.4503 81.2757 12.5996 80.6624 12.5996ZM85.1778 5.3676V1.1916H86.0338V5.3676H85.1778ZM87.3058 5.3676V1.1916H88.1618V5.3676H87.3058ZM89.71 12.3916V1.1916H90.926L96.838 10.3676V1.1916H97.958V12.3916H96.75L90.83 3.2156V12.3916H89.71ZM99.5619 13.2876L100.058 10.5836H101.178L100.306 13.2876H99.5619ZM1.84 36.3916V26.3116H0.64L0.96 25.1916H2.96V36.3916H1.84ZM8.46638 36.5996C7.78371 36.5996 7.16238 36.4343 6.60238 36.1036C6.04771 35.7729 5.60771 35.3303 5.28238 34.7756C4.95704 34.2156 4.79438 33.6023 4.79438 32.9356H5.91438C5.91438 33.3996 6.02904 33.8263 6.25838 34.2156C6.48771 34.5996 6.79438 34.9063 7.17838 35.1356C7.56771 35.3649 7.99704 35.4796 8.46638 35.4796C8.93038 35.4796 9.35438 35.3649 9.73838 35.1356C10.1224 34.9063 10.429 34.5996 10.6584 34.2156C10.893 33.8263 11.0104 33.3996 11.0104 32.9356C11.0104 32.4663 10.8984 32.0396 10.6744 31.6556C10.4557 31.2663 10.1437 30.9569 9.73838 30.7276C9.33838 30.4929 8.86104 30.3756 8.30638 30.3756H5.58638L6.64238 25.1916H11.8824V26.3116H7.54638L6.96238 29.2556L8.26638 29.2636C9.02904 29.2743 9.69838 29.4369 10.2744 29.7516C10.8557 30.0663 11.309 30.4983 11.6344 31.0476C11.965 31.5916 12.1304 32.2209 12.1304 32.9356C12.1304 33.4369 12.0344 33.9089 11.8424 34.3516C11.6557 34.7943 11.3917 35.1863 11.0504 35.5276C10.7144 35.8636 10.325 36.1276 9.88238 36.3196C9.44504 36.5063 8.97304 36.5996 8.46638 36.5996ZM15.9178 29.9276C15.5124 29.9276 15.1444 29.8289 14.8138 29.6316C14.4831 29.4289 14.2191 29.1623 14.0218 28.8316C13.8298 28.5009 13.7338 28.1409 13.7338 27.7516C13.7338 27.3516 13.8298 26.9889 14.0218 26.6636C14.2191 26.3329 14.4831 26.0689 14.8138 25.8716C15.1444 25.6743 15.5124 25.5756 15.9178 25.5756C16.3284 25.5756 16.6964 25.6769 17.0218 25.8796C17.3524 26.0769 17.6138 26.3409 17.8058 26.6716C17.9978 26.9969 18.0938 27.3569 18.0938 27.7516C18.0938 28.1569 17.9951 28.5249 17.7977 28.8556C17.6004 29.1863 17.3364 29.4476 17.0058 29.6396C16.6751 29.8316 16.3124 29.9276 15.9178 29.9276ZM15.9178 28.8076C16.2111 28.8076 16.4591 28.7063 16.6618 28.5036C16.8698 28.2956 16.9738 28.0449 16.9738 27.7516C16.9738 27.4529 16.8698 27.2023 16.6618 26.9996C16.4591 26.7969 16.2111 26.6956 15.9178 26.6956C15.6244 26.6956 15.3738 26.7969 15.1658 26.9996C14.9578 27.2023 14.8538 27.4529 14.8538 27.7516C14.8538 28.0449 14.9578 28.2956 15.1658 28.5036C15.3738 28.7063 15.6244 28.8076 15.9178 28.8076ZM22.9664 36.5996C22.2837 36.5996 21.6624 36.4343 21.1024 36.1036C20.5477 35.7729 20.1077 35.3303 19.7824 34.7756C19.457 34.2156 19.2944 33.6023 19.2944 32.9356H20.4144C20.4144 33.3996 20.529 33.8263 20.7584 34.2156C20.9877 34.5996 21.2944 34.9063 21.6784 35.1356C22.0677 35.3649 22.497 35.4796 22.9664 35.4796C23.4304 35.4796 23.8544 35.3649 24.2384 35.1356C24.6224 34.9063 24.929 34.5996 25.1584 34.2156C25.393 33.8263 25.5104 33.3996 25.5104 32.9356C25.5104 32.4663 25.3984 32.0396 25.1744 31.6556C24.9557 31.2663 24.6437 30.9569 24.2384 30.7276C23.8384 30.4929 23.361 30.3756 22.8064 30.3756H20.0864L21.1424 25.1916H26.3824V26.3116H22.0464L21.4624 29.2556L22.7664 29.2636C23.529 29.2743 24.1984 29.4369 24.7744 29.7516C25.3557 30.0663 25.809 30.4983 26.1344 31.0476C26.465 31.5916 26.6304 32.2209 26.6304 32.9356C26.6304 33.4369 26.5344 33.9089 26.3424 34.3516C26.1557 34.7943 25.8917 35.1863 25.5504 35.5276C25.2144 35.8636 24.825 36.1276 24.3824 36.3196C23.945 36.5063 23.473 36.5996 22.9664 36.5996ZM33.0658 36.3916V33.2476H28.2338V32.1116L32.7778 25.1916H34.1858V32.1276H35.3618V33.2476H34.1858V36.3916H33.0658ZM29.5618 32.1116L33.0658 32.1276L33.0418 26.7916L29.5618 32.1116ZM36.9121 29.3676V25.1916H37.7681V29.3676H36.9121ZM40.1994 36.3916V26.3116H38.9994L39.3194 25.1916H41.3194V36.3916H40.1994ZM46.8258 36.5996C46.1431 36.5996 45.5218 36.4343 44.9618 36.1036C44.4071 35.7729 43.9671 35.3303 43.6418 34.7756C43.3164 34.2156 43.1538 33.6023 43.1538 32.9356H44.2738C44.2738 33.3996 44.3884 33.8263 44.6178 34.2156C44.8471 34.5996 45.1538 34.9063 45.5378 35.1356C45.9271 35.3649 46.3564 35.4796 46.8258 35.4796C47.2898 35.4796 47.7138 35.3649 48.0978 35.1356C48.4818 34.9063 48.7884 34.5996 49.0178 34.2156C49.2524 33.8263 49.3698 33.3996 49.3698 32.9356C49.3698 32.4663 49.2578 32.0396 49.0338 31.6556C48.8151 31.2663 48.5031 30.9569 48.0978 30.7276C47.6978 30.4929 47.2204 30.3756 46.6658 30.3756H43.9458L45.0018 25.1916H50.2418V26.3116H45.9058L45.3218 29.2556L46.6258 29.2636C47.3884 29.2743 48.0578 29.4369 48.6338 29.7516C49.2151 30.0663 49.6684 30.4983 49.9938 31.0476C50.3244 31.5916 50.4898 32.2209 50.4898 32.9356C50.4898 33.4369 50.3938 33.9089 50.2018 34.3516C50.0151 34.7943 49.7511 35.1863 49.4098 35.5276C49.0738 35.8636 48.6844 36.1276 48.2418 36.3196C47.8044 36.5063 47.3324 36.5996 46.8258 36.5996ZM52.7251 36.5996C52.5491 36.5996 52.3998 36.5356 52.2771 36.4076C52.1545 36.2849 52.0931 36.1329 52.0931 35.9516C52.0931 35.7809 52.1545 35.6343 52.2771 35.5116C52.3998 35.3836 52.5491 35.3196 52.7251 35.3196C52.9065 35.3196 53.0585 35.3836 53.1811 35.5116C53.3091 35.6343 53.3731 35.7809 53.3731 35.9516C53.3731 36.1329 53.3091 36.2849 53.1811 36.4076C53.0585 36.5356 52.9065 36.5996 52.7251 36.5996ZM59.8001 36.3916V33.2476H54.9681V32.1116L59.5121 25.1916H60.9201V32.1276H62.0961V33.2476H60.9201V36.3916H59.8001ZM56.2961 32.1116L59.8001 32.1276L59.7761 26.7916L56.2961 32.1116ZM63.7025 36.3916V35.3996C64.1398 34.9943 64.6198 34.5516 65.1425 34.0716C65.6652 33.5863 66.1825 33.0876 66.6945 32.5756C67.2118 32.0583 67.6838 31.5489 68.1105 31.0476C68.5372 30.5409 68.8785 30.0636 69.1345 29.6156C69.3958 29.1623 69.5265 28.7623 69.5265 28.4156C69.5265 27.9943 69.4225 27.6103 69.2145 27.2636C69.0118 26.9116 68.7372 26.6316 68.3905 26.4236C68.0492 26.2103 67.6678 26.1036 67.2465 26.1036C66.8252 26.1036 66.4385 26.2103 66.0865 26.4236C65.7398 26.6316 65.4625 26.9116 65.2545 27.2636C65.0465 27.6103 64.9425 27.9943 64.9425 28.4156H63.8225C63.8225 27.7756 63.9772 27.1969 64.2865 26.6796C64.6012 26.1623 65.0172 25.7516 65.5345 25.4476C66.0518 25.1383 66.6225 24.9836 67.2465 24.9836C67.8705 24.9836 68.4385 25.1383 68.9505 25.4476C69.4678 25.7569 69.8785 26.1703 70.1825 26.6876C70.4918 27.2049 70.6465 27.7809 70.6465 28.4156C70.6465 28.7943 70.5452 29.2103 70.3425 29.6636C70.1452 30.1116 69.8758 30.5783 69.5345 31.0636C69.1932 31.5436 68.8092 32.0289 68.3825 32.5196C67.9558 33.0103 67.5105 33.4903 67.0465 33.9596C66.5825 34.4236 66.1318 34.8609 65.6945 35.2716H70.8145V36.3916H63.7025ZM76.7689 36.3916V33.2476H71.9369V32.1116L76.4809 25.1916H77.8889V32.1276H79.0649V33.2476H77.8889V36.3916H76.7689ZM73.2649 32.1116L76.7689 32.1276L76.7449 26.7916L73.2649 32.1116ZM80.6153 29.3676V25.1916H81.4713V29.3676H80.6153ZM82.7433 29.3676V25.1916H83.5993V29.3676H82.7433ZM85.1475 36.3916V25.1916H91.9635V26.3116H86.2675V29.8316H90.9795V30.9516H86.2675V35.2716H91.9635V36.3916H85.1475Z" fill="white"/>
</svg>
