<svg width="116" height="76" viewBox="0 0 116 76" fill="none" xmlns="http://www.w3.org/2000/svg">
<g id="Group">
<g id="Group_2">
<path id="Vector" d="M0 22.7288V1.07214H7.71571C8.88748 1.07214 9.9511 1.36529 10.9025 1.95359C11.854 2.54188 12.6071 3.33097 13.164 4.32084C13.7188 5.31071 13.9972 6.39896 13.9972 7.5856C13.9972 8.77224 13.7108 9.90466 13.1399 10.8885C12.5691 11.8744 11.8059 12.6574 10.8485 13.2397C9.89101 13.822 8.84742 14.1131 7.71571 14.1131H3.76571V22.7288H0ZM3.76571 10.3384H7.3151C7.84991 10.3384 8.33865 10.2038 8.78132 9.93679C9.224 9.66975 9.57653 9.30833 9.83893 8.85456C10.1013 8.40079 10.2335 7.89481 10.2335 7.33864C10.2335 6.78246 10.1013 6.26042 9.83893 5.80665C9.57653 5.35288 9.224 4.99146 8.78132 4.72442C8.33865 4.45737 7.84991 4.32285 7.3151 4.32285H3.76571V10.3404V10.3384Z" fill="white"/>
<path id="Vector_2" d="M15.7559 22.7288V1.07214H29.3044V4.84689H19.5196V9.24006H27.2813V13.0148H19.5196V18.954H29.3044V22.7288H15.7559Z" fill="white"/>
<path id="Vector_3" d="M31.3735 22.7288V1.07214H35.4477L44.5676 15.9061V1.07214H48.3333V22.7288H44.2751L35.1392 7.8948V22.7288H31.3735Z" fill="white"/>
<path id="Vector_4" d="M58.4847 23.1303C57.2909 23.1303 56.1472 22.9416 55.0515 22.5661C53.9558 22.1907 52.9964 21.6486 52.1731 20.9418C51.3499 20.235 50.759 19.3877 50.3984 18.3978L53.9318 17.0988C54.076 17.5104 54.3685 17.8879 54.8111 18.2272C55.2538 18.5665 55.7926 18.8416 56.4316 19.0464C57.0686 19.2532 57.7536 19.3556 58.4847 19.3556C59.2158 19.3556 59.9369 19.2391 60.5919 19.0082C61.2449 18.7753 61.7717 18.4521 62.1743 18.0344C62.5749 17.6168 62.7752 17.1289 62.7752 16.5727C62.7752 16.0165 62.5649 15.5387 62.1423 15.1732C61.7196 14.8078 61.1808 14.5167 60.5218 14.2998C59.8628 14.083 59.1838 13.9183 58.4847 13.8039C56.9524 13.567 55.5783 13.2015 54.3645 12.7056C53.1506 12.2097 52.1912 11.525 51.4861 10.6476C50.781 9.77013 50.4285 8.6357 50.4285 7.24426C50.4285 5.93514 50.803 4.79067 51.5542 3.81084C52.3053 2.83101 53.2928 2.06803 54.5167 1.5219C55.7405 0.975762 57.0626 0.702698 58.4827 0.702698C59.6665 0.702698 60.8082 0.889425 61.9079 1.25887C63.0096 1.63032 63.973 2.17244 64.8023 2.88322C65.6295 3.59399 66.2244 4.45135 66.585 5.45125L63.0356 6.73427C62.8914 6.32266 62.599 5.94519 62.1563 5.60385C61.7136 5.26453 61.1748 4.99346 60.5358 4.79267C59.8969 4.59189 59.2138 4.4915 58.4827 4.4915C57.7516 4.48146 57.0605 4.59792 56.4076 4.83886C55.7546 5.08181 55.2218 5.40909 54.8111 5.8207C54.4005 6.23231 54.1942 6.70816 54.1942 7.24426C54.1942 7.93496 54.3865 8.45701 54.7731 8.80637C55.1597 9.15574 55.6764 9.41274 56.3234 9.57136C56.9704 9.72998 57.6915 9.87856 58.4847 10.0111C59.9249 10.238 61.2569 10.6194 62.4808 11.1555C63.7046 11.6916 64.6881 12.4064 65.4272 13.2979C66.1664 14.1894 66.5389 15.2797 66.5389 16.5687C66.5389 17.8577 66.1684 19.0263 65.4272 20.0102C64.6861 20.996 63.7046 21.761 62.4808 22.3071C61.2569 22.8533 59.9249 23.1263 58.4847 23.1263V23.1303Z" fill="white"/>
<path id="Vector_5" d="M69.1189 22.7288V1.07214H72.8846V22.7288H69.1189Z" fill="white"/>
<path id="Vector_6" d="M85.7541 23.1304C84.2939 23.1304 82.9198 22.8392 81.6339 22.257C80.3479 21.6747 79.2162 20.8675 78.2387 19.8355C77.2612 18.8055 76.4941 17.6108 75.9392 16.2555C75.3844 14.9002 75.106 13.4485 75.106 11.9005C75.106 10.3524 75.3844 8.90276 75.9392 7.54545C76.4941 6.19016 77.2612 4.99549 78.2387 3.96346C79.2162 2.93343 80.3479 2.12628 81.6339 1.54199C82.9198 0.95771 84.2939 0.668579 85.7541 0.668579C87.2143 0.668579 88.6044 0.959718 89.8904 1.54199C91.1763 2.12427 92.3081 2.93142 93.2855 3.96346C94.263 4.99549 95.0262 6.18815 95.577 7.54545C96.1278 8.90075 96.4023 10.3524 96.4023 11.9005C96.4023 13.4485 96.1278 14.8982 95.577 16.2555C95.0262 17.6108 94.263 18.8055 93.2855 19.8355C92.3081 20.8675 91.1763 21.6747 89.8904 22.257C88.6044 22.8392 87.2263 23.1304 85.7541 23.1304ZM85.7541 19.3556C86.6995 19.3556 87.5909 19.1588 88.4242 18.7673C89.2574 18.3758 89.9905 17.8377 90.6235 17.151C91.2565 16.4643 91.7492 15.6732 92.1058 14.7757C92.4623 13.8782 92.6386 12.9205 92.6386 11.8985C92.6386 10.8765 92.4583 9.91672 92.0977 9.01319C91.7372 8.11167 91.2404 7.31856 90.6075 6.6379C89.9745 5.95724 89.2434 5.42116 88.4161 5.02963C87.5889 4.6381 86.7016 4.44132 85.7541 4.44132C84.8067 4.44132 83.9173 4.6381 83.0841 5.02963C82.2508 5.42116 81.5177 5.96127 80.8847 6.64594C80.2518 7.33263 79.757 8.12372 79.4025 9.01922C79.0479 9.91673 78.8697 10.8765 78.8697 11.8965C78.8697 12.9164 79.0499 13.8923 79.4105 14.7898C79.771 15.6873 80.2678 16.4784 80.8987 17.1651C81.5317 17.8517 82.2628 18.3878 83.0901 18.7733C83.9173 19.1588 84.8047 19.3536 85.7521 19.3536L85.7541 19.3556Z" fill="white"/>
<path id="Vector_7" d="M98.1609 22.7288V1.07214H102.235L111.355 15.9061V1.07214H115.121V22.7288H111.062L101.927 7.8948V22.7288H98.1609Z" fill="white"/>
<path id="Vector_8" d="M8.36669 29.2784H12.9937L21.3764 52.3887H17.112L15.6297 48.2947H5.74672L4.26447 52.3887H0L8.36669 29.2784ZM7.21294 44.267H14.1455L10.6702 34.7417L7.21094 44.267H7.21294Z" fill="white"/>
<path id="Vector_9" d="M36.2871 29.2784V33.3061H29.2384V52.3887H25.2203V33.3061H18.1716V29.2784H36.2871Z" fill="white"/>
<path id="Vector_10" d="M38.9231 52.3887V29.2784H47.7665C49.0184 29.2784 50.1481 29.5916 51.1597 30.2201C52.1692 30.8465 52.9704 31.6858 53.5633 32.7379C54.1562 33.79 54.4527 34.9526 54.4527 36.2295C54.4527 37.2756 54.2624 38.2354 53.8838 39.1108C53.5052 39.9862 52.9784 40.7432 52.3034 41.3797C51.6284 42.0182 50.8512 42.5021 49.9739 42.8334L55.4902 52.3907H50.8632L45.5271 43.1968H42.9412V52.3907H38.9231V52.3887ZM42.9412 39.167H47.3058C47.8767 39.167 48.3975 39.0245 48.8702 38.7373C49.3429 38.4522 49.7215 38.0667 50.0059 37.5828C50.2903 37.0989 50.4346 36.5588 50.4346 35.9645C50.4346 35.3702 50.2923 34.814 50.0059 34.3301C49.7195 33.8462 49.3409 33.4607 48.8702 33.1756C48.3975 32.8905 47.8767 32.7459 47.3058 32.7459H42.9412V39.167Z" fill="white"/>
<path id="Vector_11" d="M58.7332 52.3887V29.2784H62.7513V52.3887H58.7332Z" fill="white"/>
<path id="Vector_12" d="M75.7771 52.8184C73.9323 52.8184 72.3158 52.3666 70.9277 51.4651C69.5396 50.5636 68.46 49.3488 67.6908 47.8249C66.9216 46.3009 66.5391 44.6083 66.5391 42.749V29.2784H70.5572V42.749C70.5572 43.8493 70.7635 44.8593 71.1741 45.7789C71.5867 46.6985 72.1796 47.4293 72.9528 47.9754C73.726 48.5196 74.6674 48.7926 75.7771 48.7926C76.8868 48.7926 77.8402 48.5196 78.6094 47.9754C79.3785 47.4313 79.9614 46.6985 80.364 45.7789C80.7646 44.8593 80.9649 43.8513 80.9649 42.749V29.2784H84.983V42.749C84.983 44.1465 84.7627 45.4536 84.324 46.6703C83.8854 47.8871 83.2584 48.9573 82.4472 49.8809C81.634 50.8045 80.6665 51.5273 79.5408 52.0433C78.4151 52.5614 77.1612 52.8184 75.7771 52.8184Z" fill="white"/>
<path id="Vector_13" d="M88.2759 52.3887L92.7547 29.2784H96.0817L101.696 44.0863L107.313 29.2784H110.64L115.119 52.3887H111.018L108.252 38.0928L103.064 51.8606H100.314L95.1263 38.0928L92.3761 52.3887H88.2759Z" fill="white"/>
</g>
<g id="Group_3">
<path id="Vector_14" d="M25.6429 61.0526V62.1669H20.5391V75.491H19.4274V62.1669H14.3357V61.0526H25.6429Z" fill="white"/>
<path id="Vector_15" d="M27.1231 75.489V61.0505H31.8142C32.5754 61.0505 33.2644 61.2353 33.8814 61.6027C34.4983 61.9701 34.987 62.4701 35.3476 63.1026C35.7081 63.735 35.8884 64.4438 35.8884 65.2269C35.8884 65.9557 35.7362 66.6123 35.4297 67.1966C35.1252 67.7808 34.7106 68.2607 34.1898 68.6342C33.669 69.0096 33.0861 69.2446 32.4412 69.3409L35.9805 75.487H34.6946L31.1752 69.4132H28.2328V75.487H27.1211L27.1231 75.489ZM28.2348 68.3009H31.7421C32.2969 68.3009 32.8057 68.1643 33.2644 67.8933C33.7231 67.6222 34.0917 67.2528 34.3661 66.7849C34.6405 66.3171 34.7767 65.785 34.7767 65.1867C34.7767 64.5884 34.6385 64.0643 34.3661 63.5925C34.0937 63.1206 33.7251 62.7512 33.2644 62.4781C32.8057 62.2071 32.2969 62.0705 31.7421 62.0705H28.2348V68.2989V68.3009Z" fill="white"/>
<path id="Vector_16" d="M43.2436 75.758C42.0919 75.758 41.1024 75.4769 40.2751 74.9127C39.4479 74.3485 38.8149 73.5916 38.3722 72.6398C37.9296 71.6881 37.7092 70.63 37.7092 69.4695V61.0546H38.8209V69.4695C38.8209 70.4111 38.9932 71.2745 39.3357 72.0576C39.6782 72.8406 40.179 73.4691 40.838 73.9389C41.497 74.4108 42.2982 74.6457 43.2456 74.6457C44.1931 74.6457 45.0243 74.4088 45.6793 73.9349C46.3343 73.4611 46.8291 72.8306 47.1656 72.0435C47.5021 71.2564 47.6703 70.3991 47.6703 69.4695V61.0546H48.782V69.4695C48.782 70.3429 48.6558 71.1601 48.4014 71.919C48.1471 72.678 47.7825 73.3466 47.3058 73.9249C46.8291 74.5031 46.2502 74.9529 45.5672 75.2761C44.8841 75.5994 44.1109 75.762 43.2476 75.762L43.2436 75.758Z" fill="white"/>
<path id="Vector_17" d="M61.5674 61.0526V62.1669H56.4637V75.491H55.352V62.1669H50.2603V61.0526H61.5674Z" fill="white"/>
<path id="Vector_18" d="M63.0476 75.489V61.0505H64.2614L72.3277 73.4771V61.0505H73.4394V75.489H72.2456L64.1593 63.0624V75.489H63.0476Z" fill="white"/>
<path id="Vector_19" d="M82.0184 75.758C81.0449 75.758 80.1295 75.5633 79.2722 75.1758C78.4149 74.7882 77.6598 74.2501 77.0088 73.5614C76.3578 72.8748 75.847 72.0776 75.4765 71.1741C75.1059 70.2706 74.9216 69.3028 74.9216 68.2708C74.9216 67.2387 75.1059 66.2709 75.4765 65.3674C75.847 64.4639 76.3578 63.6668 77.0088 62.9801C77.6598 62.2934 78.4149 61.7553 79.2722 61.3658C80.1295 60.9783 81.0449 60.7835 82.0184 60.7835C82.9919 60.7835 83.9173 60.9783 84.7746 61.3658C85.6319 61.7533 86.387 62.2914 87.038 62.9801C87.689 63.6668 88.1978 64.4639 88.5663 65.3674C88.9329 66.2709 89.1172 67.2387 89.1172 68.2708C89.1172 69.3028 88.9329 70.2706 88.5663 71.1741C88.1998 72.0776 87.691 72.8748 87.038 73.5614C86.387 74.2481 85.6319 74.7862 84.7746 75.1758C83.9173 75.5633 82.9979 75.758 82.0184 75.758ZM82.0184 74.6437C82.8557 74.6437 83.6349 74.475 84.358 74.1377C85.081 73.8004 85.716 73.3386 86.2608 72.7503C86.8057 72.162 87.2323 71.4833 87.5408 70.7143C87.8492 69.9453 88.0035 69.1301 88.0035 68.2708C88.0035 67.4114 87.8472 66.5761 87.5348 65.8051C87.2223 65.0361 86.7916 64.3575 86.2428 63.7732C85.694 63.1889 85.059 62.7291 84.3399 62.3958C83.6188 62.0625 82.8437 61.8959 82.0144 61.8959C81.1851 61.8959 80.3979 62.0645 79.6728 62.4018C78.9497 62.7392 78.3148 63.201 77.77 63.7892C77.2251 64.3775 76.7985 65.0562 76.49 65.8252C76.1815 66.5942 76.0273 67.4094 76.0273 68.2688C76.0273 69.1281 76.1835 69.9634 76.496 70.7324C76.8085 71.5014 77.2391 72.1821 77.788 72.7683C78.3368 73.3566 78.9718 73.8144 79.6969 74.1457C80.42 74.475 81.1931 74.6417 82.0164 74.6417L82.0184 74.6437Z" fill="white"/>
<path id="Vector_20" d="M94.9601 75.489L89.7341 61.0505H90.9179L95.609 74.0232L100.32 61.0505H101.494L96.258 75.489H94.9621H94.9601Z" fill="white"/>
</g>
</g>
</svg>
