<svg width="108" height="49" viewBox="0 0 108 49" fill="none" xmlns="http://www.w3.org/2000/svg">
<path d="M0.31543 20.9192V0.708008H7.533C8.63036 0.708008 9.62408 0.982777 10.5141 1.53067C11.4042 2.07857 12.11 2.81567 12.6282 3.7387C13.1481 4.66337 13.4081 5.67854 13.4081 6.7842C13.4081 7.88986 13.1416 8.94781 12.6069 9.8659C12.0722 10.7856 11.3581 11.5162 10.4631 12.0608C9.56814 12.6037 8.59088 12.8768 7.533 12.8768H3.83784V20.9176H0.31543V20.9192ZM3.83784 9.35585H7.1579C7.65804 9.35585 8.11541 9.2308 8.52836 8.98071C8.94295 8.73062 9.272 8.39333 9.51714 7.97048C9.76227 7.54763 9.88566 7.07542 9.88566 6.5555C9.88566 6.03558 9.76227 5.55021 9.51714 5.12571C9.272 4.70286 8.94295 4.36557 8.52836 4.11548C8.11376 3.86539 7.65804 3.74035 7.1579 3.74035H3.83784V9.35585Z" fill="#414141"/>
<path d="M15.0532 20.9192V0.708008H27.7263V4.23065H18.574V8.33081H25.8343V11.8535H18.574V17.3966H27.7263V20.9192H15.0532Z" fill="#414141"/>
<path d="M29.6628 20.9192V0.708008H33.4731L42.0036 14.5518V0.708008H45.526V20.9176H41.7288L33.1836 7.07378V20.9176H29.6611L29.6628 20.9192Z" fill="#414141"/>
<path d="M55.024 21.2944C53.9069 21.2944 52.8375 21.1184 51.8125 20.7679C50.7876 20.4174 49.8909 19.9123 49.121 19.2526C48.351 18.5928 47.7982 17.8014 47.4609 16.8783L50.7662 15.6657C50.9011 16.0507 51.1758 16.4012 51.5888 16.7187C52.0017 17.0363 52.5068 17.2913 53.104 17.4838C53.7012 17.6763 54.3412 17.7734 55.024 17.7734C55.7068 17.7734 56.383 17.6648 56.995 17.4493C57.6054 17.2321 58.0989 16.9293 58.474 16.5394C58.8491 16.1495 59.0367 15.6954 59.0367 15.1754C59.0367 14.6555 58.8393 14.2113 58.4444 13.869C58.0496 13.5268 57.5445 13.2553 56.9292 13.053C56.3139 12.8506 55.6788 12.6976 55.024 12.5906C53.5894 12.3701 52.3061 12.0279 51.1709 11.5656C50.0357 11.1032 49.1374 10.4632 48.4793 9.64548C47.8212 8.82776 47.4906 7.76817 47.4906 6.47C47.4906 5.24753 47.841 4.17971 48.5435 3.26491C49.246 2.3501 50.1706 1.63768 51.3157 1.12763C52.4608 0.617575 53.698 0.362549 55.0257 0.362549C56.1329 0.362549 57.2006 0.535309 58.2305 0.882473C59.2604 1.22964 60.162 1.73475 60.9369 2.39782C61.7118 3.06253 62.2679 3.86051 62.6035 4.79506L59.2835 5.99286C59.1486 5.60785 58.8738 5.2574 58.4609 4.9382C58.0463 4.62066 57.5412 4.36728 56.9456 4.17971C56.3484 3.99214 55.7084 3.89836 55.0257 3.89836C54.3429 3.88849 53.6947 3.99708 53.0843 4.22249C52.4723 4.44954 51.9754 4.75393 51.5904 5.13893C51.2055 5.52394 51.013 5.96653 51.013 6.46671C51.013 7.11168 51.1939 7.59705 51.5542 7.92447C51.9145 8.25189 52.3982 8.49047 53.0053 8.63855C53.6124 8.78827 54.2853 8.92483 55.0257 9.04988C56.3731 9.26212 57.6185 9.61751 58.7652 10.1177C59.9103 10.6179 60.83 11.2842 61.5226 12.1168C62.2153 12.9493 62.5624 13.9661 62.5624 15.1705C62.5624 16.3749 62.2169 17.4641 61.5226 18.3822C60.83 19.3019 59.9103 20.016 58.7652 20.526C57.6202 21.0361 56.3731 21.2911 55.0257 21.2911L55.024 21.2944Z" fill="#414141"/>
<path d="M64.9692 20.9192V0.708008H68.4916V20.9176H64.9692V20.9192Z" fill="#414141"/>
<path d="M80.5295 21.2944C79.1623 21.2944 77.8774 21.0229 76.6747 20.4783C75.4721 19.9353 74.4126 19.1818 73.4995 18.2192C72.5847 17.2567 71.8691 16.1428 71.3492 14.8776C70.8293 13.6123 70.5693 12.2582 70.5693 10.8136C70.5693 9.36902 70.8293 8.01656 71.3492 6.74966C71.8691 5.48441 72.5864 4.37052 73.4995 3.408C74.4142 2.44549 75.4721 1.69193 76.6747 1.14897C77.8774 0.60601 79.1623 0.332886 80.5295 0.332886C81.8967 0.332886 83.1947 0.604365 84.3974 1.14897C85.6 1.69193 86.6596 2.44549 87.5727 3.408C88.4858 4.37052 89.2014 5.48441 89.7164 6.74966C90.2313 8.01492 90.488 9.36902 90.488 10.8136C90.488 12.2582 90.2313 13.6123 89.7164 14.8776C89.2014 16.1428 88.4874 17.2567 87.5727 18.2192C86.6579 19.1818 85.6 19.9353 84.3974 20.4783C83.1947 21.0212 81.9049 21.2944 80.5295 21.2944ZM80.5295 17.7717C81.4146 17.7717 82.2471 17.5891 83.0269 17.2238C83.8068 16.8586 84.4928 16.3551 85.0834 15.715C85.6757 15.075 86.1364 14.3363 86.4687 13.4988C86.8011 12.6613 86.9672 11.7663 86.9672 10.8136C86.9672 9.86098 86.7994 8.96427 86.4621 8.12187C86.1249 7.27946 85.6609 6.54071 85.0686 5.90561C84.4764 5.27051 83.7936 4.77033 83.0187 4.40507C82.2438 4.03981 81.4146 3.85718 80.5295 3.85718C79.6444 3.85718 78.8119 4.03981 78.032 4.40507C77.2522 4.77033 76.5662 5.2738 75.9755 5.91384C75.3832 6.55387 74.9209 7.29262 74.5902 8.13009C74.2579 8.96756 74.0917 9.86262 74.0917 10.8153C74.0917 11.7679 74.2596 12.6778 74.5968 13.5152C74.9341 14.3527 75.3981 15.0915 75.9903 15.7315C76.5826 16.3715 77.2654 16.8717 78.0403 17.232C78.8152 17.5924 79.6444 17.7734 80.5311 17.7734L80.5295 17.7717Z" fill="#414141"/>
<path d="M92.1349 20.9192V0.708008H95.9453L104.476 14.5518V0.708008H107.998V20.9176H104.201L95.6557 7.07378V20.9176H92.1333L92.1349 20.9192Z" fill="#414141"/>
<path d="M8.14173 27.0316H12.4703L20.3114 48.5986H16.3218L14.9348 44.7781H5.69201L4.30508 48.5986H0.31543L8.14173 27.0316ZM7.06247 41.0202H13.5479L10.297 32.1305L7.06247 41.0202Z" fill="#414141"/>
<path d="M34.2597 27.0316V30.7912H27.6657V48.6002H23.908V30.7912H17.314V27.0316H34.2581H34.2597Z" fill="#414141"/>
<path d="M36.7241 48.5986V27.0316H44.9963C46.1677 27.0316 47.2239 27.3245 48.1699 27.9102C49.1143 28.496 49.8645 29.2791 50.4189 30.2597C50.9734 31.2404 51.2514 32.3263 51.2514 33.5175C51.2514 34.4932 51.0737 35.3899 50.72 36.206C50.3663 37.022 49.8727 37.7279 49.2409 38.3235C48.6092 38.9191 47.882 39.3716 47.061 39.6792L52.2221 48.5986H47.8935L42.9019 40.0182H40.4835V48.5986H36.7258H36.7241ZM40.4818 36.2586H44.5636C45.0966 36.2586 45.5853 36.1253 46.0262 35.8588C46.4671 35.5923 46.8225 35.2319 47.089 34.7811C47.3555 34.3286 47.4888 33.8252 47.4888 33.2707C47.4888 32.7162 47.3555 32.1979 47.089 31.7455C46.8208 31.2947 46.4671 30.9343 46.0262 30.6678C45.5853 30.4012 45.0966 30.268 44.5636 30.268H40.4818V36.2603V36.2586Z" fill="#414141"/>
<path d="M55.2559 48.5986V27.0316H59.0152V48.5986H55.2559Z" fill="#414141"/>
<path d="M71.198 49C69.4722 49 67.9602 48.5788 66.6605 47.7364C65.3608 46.8939 64.3522 45.762 63.6333 44.3404C62.9143 42.9188 62.5557 41.3393 62.5557 39.6035V27.0332H66.3133V39.6035C66.3133 40.6302 66.5058 41.573 66.8908 42.4302C67.2758 43.2874 67.8302 43.9702 68.5541 44.4786C69.278 44.987 70.1582 45.2404 71.1964 45.2404C72.2345 45.2404 73.1262 44.987 73.8451 44.4786C74.5641 43.9702 75.1103 43.2874 75.4854 42.4302C75.8605 41.573 76.0481 40.6302 76.0481 39.6035V27.0332H79.8074V39.6035C79.8074 40.9082 79.6018 42.1274 79.1921 43.2627C78.7808 44.398 78.1951 45.3967 77.435 46.2589C76.6749 47.121 75.7684 47.7939 74.7155 48.2777C73.6625 48.7598 72.4895 49.0016 71.1964 49.0016L71.198 49Z" fill="#414141"/>
<path d="M82.8906 48.5986L87.081 27.0316H90.1921L95.4453 40.8507L100.698 27.0316H103.81L108 48.5986H104.165L101.577 35.2566L96.7253 48.105H94.1521L89.3004 35.2566L86.7273 48.5986H82.8923H82.8906Z" fill="#414141"/>
</svg>
