<svg width="15" height="8" viewBox="0 0 15 8" fill="none" xmlns="http://www.w3.org/2000/svg">
<path d="M14.8 1.13826L7.98235 7.80449C7.91903 7.86647 7.84384 7.91564 7.76108 7.94919C7.67831 7.98273 7.5896 8 7.5 8C7.41041 8 7.32169 7.98273 7.23892 7.94919C7.15616 7.91564 7.08097 7.86647 7.01765 7.80449L0.199954 1.13826C0.104499 1.04503 0.0394804 0.926201 0.0131297 0.796819C-0.013221 0.667438 0.000281226 0.53332 0.0519269 0.411446C0.103573 0.289572 0.19104 0.185422 0.303255 0.112179C0.41547 0.0389369 0.547387 -0.000103612 0.682306 2.0652e-07H14.3177C14.4526 -0.000103612 14.5845 0.0389369 14.6967 0.112179C14.809 0.185422 14.8964 0.289572 14.9481 0.411446C14.9997 0.53332 15.0132 0.667438 14.9869 0.796819C14.9605 0.926201 14.8955 1.04503 14.8 1.13826Z" fill="#414141"/>
</svg>
