<svg width="35" height="35" viewBox="0 0 35 35" fill="none" xmlns="http://www.w3.org/2000/svg">
<rect x="0.5" y="0.5" width="34" height="34" rx="17" stroke="#C1C0C1"/>

<path fill-rule="evenodd" clip-rule="evenodd" d="M4.54266 13.5282V7.36815H6.62801L6.92627 4.96464H4.54266V3.46203C4.54266 2.78594 4.76637 2.26028 5.73405 2.26028H7V0.0815682C6.70257 0.0815682 5.95775 0.00635292 5.13836 0.00635292C4.72388 -0.0213681 4.30836 0.0418536 3.92042 0.191665C3.53249 0.341476 3.18135 0.574317 2.89118 0.874154C2.60102 1.17399 2.37873 1.5337 2.23961 1.92852C2.1005 2.32333 2.04786 2.74387 2.08534 3.16117V4.96464H0V7.36815H2.08534V13.5282H4.54266Z" fill="white"/>

<path fill-rule="evenodd" clip-rule="evenodd" d="M18.5427 24.5282V18.3682H20.628L20.9263 15.9646H18.5427V14.462C18.5427 13.7859 18.7664 13.2603 19.7341 13.2603H21V11.0816C20.7026 11.0816 19.9577 11.0064 19.1384 11.0064C18.7239 10.9786 18.3084 11.0419 17.9204 11.1917C17.5325 11.3415 17.1813 11.5743 16.8912 11.8742C16.601 12.174 16.3787 12.5337 16.2396 12.9285C16.1005 13.3233 16.0479 13.7439 16.0853 14.1612V15.9646H14V18.3682H16.0853V24.5282H18.5427Z" fill="white"/>
</svg>
