<svg width="22" height="22" viewBox="0 0 22 22" fill="none" xmlns="http://www.w3.org/2000/svg">
<path d="M15.5833 3.20825H6.41659C3.66659 3.20825 1.83325 4.58325 1.83325 7.79158V14.2083C1.83325 17.4166 3.66659 18.7916 6.41659 18.7916H15.5833C18.3333 18.7916 20.1666 17.4166 20.1666 14.2083V7.79158C20.1666 4.58325 18.3333 3.20825 15.5833 3.20825ZM16.0141 8.79075L13.1449 11.0824C12.5399 11.5683 11.7699 11.8066 10.9999 11.8066C10.2299 11.8066 9.45075 11.5683 8.85492 11.0824L5.98575 8.79075C5.69242 8.55242 5.64659 8.11242 5.87575 7.81908C6.11409 7.52575 6.54492 7.47075 6.83825 7.70908L9.70742 10.0008C10.4041 10.5599 11.5866 10.5599 12.2833 10.0008L15.1524 7.70908C15.4458 7.47075 15.8858 7.51658 16.1149 7.81908C16.3533 8.11242 16.3074 8.55242 16.0141 8.79075Z" fill="white"/>
</svg>
