<svg width="24" height="16" viewBox="0 0 24 16" fill="none" xmlns="http://www.w3.org/2000/svg">
<mask id="mask0_52_91" style="mask-type:luminance" maskUnits="userSpaceOnUse" x="0" y="0" width="24" height="16">
<path d="M0 0H24V16H0V0Z" fill="white"/>
</mask>
<g mask="url(#mask0_52_91)">
<path fill-rule="evenodd" clip-rule="evenodd" d="M0 0V16H24V0H0Z" fill="#2E42A5"/>
<mask id="mask1_52_91" style="mask-type:luminance" maskUnits="userSpaceOnUse" x="0" y="0" width="24" height="16">
<path fill-rule="evenodd" clip-rule="evenodd" d="M0 0V16H24V0H0Z" fill="white"/>
</mask>
<g mask="url(#mask1_52_91)">
<mask id="mask2_52_91" style="mask-type:luminance" maskUnits="userSpaceOnUse" x="0" y="0" width="24" height="16">
<path d="M0 0H24V16H0V0Z" fill="white"/>
</mask>
<g mask="url(#mask2_52_91)">
<path d="M-2.67261 14.8568L2.60866 16.8422L24.1196 2.15845L26.9053 -0.791871L21.2578 -1.45544L12.484 4.8722L5.42198 9.13558L-2.67261 14.8568Z" fill="white"/>
<path d="M-1.94897 16.248L0.741585 17.4002L25.9056 -1.0658H22.1278L-1.94897 16.248Z" fill="#F50100"/>
<path d="M26.6724 14.8568L21.3911 16.8422L-0.119768 2.15845L-2.90552 -0.791871L2.74204 -1.45544L11.5158 4.8722L18.5778 9.13558L26.6724 14.8568Z" fill="white"/>
<path d="M26.4925 15.8553L23.8019 17.0074L13.0868 9.10122L9.90997 8.21782L-3.17334 -0.781616H0.60452L13.6805 8.00422L17.1538 9.06349L26.4925 15.8553Z" fill="#F50100"/>
<path fill-rule="evenodd" clip-rule="evenodd" d="M14.8337 -1.33337H9.16704V5.33329H-1.479V10.6666H9.16704V17.3333H14.8337V10.6666H25.521V5.33329H14.8337V-1.33337Z" fill="#F50100"/>
<mask id="mask3_52_91" style="mask-type:luminance" maskUnits="userSpaceOnUse" x="-2" y="-2" width="28" height="20">
<path fill-rule="evenodd" clip-rule="evenodd" d="M14.8337 -1.33337H9.16704V5.33329H-1.479V10.6666H9.16704V17.3333H14.8337V10.6666H25.521V5.33329H14.8337V-1.33337Z" fill="white"/>
</mask>
<g mask="url(#mask3_52_91)">
<path d="M9.16704 -1.33329V-2.66663H7.66704V-1.33329H9.16704ZM14.8337 -1.33329H16.3337V-2.66663H14.8337V-1.33329ZM9.16704 5.33337V6.66671H10.667V5.33337H9.16704ZM-1.479 5.33337V4.00004H-2.979V5.33337H-1.479ZM-1.479 10.6667H-2.979V12H-1.479V10.6667ZM9.16704 10.6667H10.667V9.33337H9.16704V10.6667ZM9.16704 17.3334H7.66704V18.6667H9.16704V17.3334ZM14.8337 17.3334V18.6667H16.3337V17.3334H14.8337ZM14.8337 10.6667V9.33337H13.3337V10.6667H14.8337ZM25.521 10.6667V12H27.021V10.6667H25.521ZM25.521 5.33337H27.021V4.00004H25.521V5.33337ZM14.8337 5.33337H13.3337V6.66671H14.8337V5.33337ZM9.16704 4.07696e-05H14.8337V-2.66663H9.16704V4.07696e-05ZM10.667 5.33337V-1.33329H7.66704V5.33337H10.667ZM-1.479 6.66671H9.16704V4.00004H-1.479V6.66671ZM0.0209925 10.6667V5.33337H-2.979V10.6667H0.0209925ZM9.16704 9.33337H-1.479V12H9.16704V9.33337ZM10.667 17.3334V10.6667H7.66704V17.3334H10.667ZM14.8337 16H9.16704V18.6667H14.8337V16ZM13.3337 10.6667V17.3334H16.3337V10.6667H13.3337ZM25.521 9.33337H14.8337V12H25.521V9.33337ZM24.021 5.33337V10.6667H27.021V5.33337H24.021ZM14.8337 6.66671H25.521V4.00004H14.8337V6.66671ZM13.3337 -1.33329V5.33337H16.3337V-1.33329H13.3337Z" fill="white"/>
</g>
</g>
</g>
</g>
</svg>
