<svg width="20" height="20" viewBox="0 0 20 20" fill="none" xmlns="http://www.w3.org/2000/svg">
<path id="Vector" d="M11.0286 0.00406853C11.7583 0.00126831 12.488 0.00860242 13.2176 0.0260686L13.4116 0.0330686C13.6356 0.0410686 13.8566 0.0510685 14.1236 0.0630685C15.1876 0.113069 15.9136 0.281069 16.5506 0.528069C17.2106 0.782069 17.7666 1.12607 18.3226 1.68207C18.831 2.18167 19.2244 2.78602 19.4756 3.45307C19.7226 4.09007 19.8906 4.81707 19.9406 5.88107C19.9526 6.14707 19.9626 6.36907 19.9706 6.59307L19.9766 6.78707C19.9943 7.51626 20.002 8.24566 19.9996 8.97507L20.0006 9.72107V11.0311C20.003 11.7608 19.9954 12.4905 19.9776 13.2201L19.9716 13.4141C19.9636 13.6381 19.9536 13.8591 19.9416 14.1261C19.8916 15.1901 19.7216 15.9161 19.4756 16.5531C19.2252 17.2208 18.8317 17.8257 18.3226 18.3251C17.8225 18.8334 17.2179 19.2268 16.5506 19.4781C15.9136 19.7251 15.1876 19.8931 14.1236 19.9431C13.8566 19.9551 13.6356 19.9651 13.4116 19.9731L13.2176 19.9791C12.4881 19.9968 11.7583 20.0045 11.0286 20.0021L10.2826 20.0031H8.97358C8.24384 20.0055 7.5141 19.9979 6.78458 19.9801L6.59058 19.9741C6.35319 19.9655 6.11585 19.9555 5.87858 19.9441C4.81458 19.8941 4.08858 19.7241 3.45058 19.4781C2.78326 19.2274 2.17881 18.8339 1.67958 18.3251C1.17062 17.8254 0.776801 17.2206 0.525577 16.5531C0.278577 15.9161 0.110577 15.1901 0.0605769 14.1261C0.0494399 13.8888 0.0394398 13.6514 0.030577 13.4141L0.0255771 13.2201C0.00714068 12.4906 -0.00119355 11.7608 0.000577001 11.0311V8.97507C-0.00221397 8.24567 0.00512015 7.51627 0.0225771 6.78707L0.029577 6.59307C0.037577 6.36907 0.047577 6.14707 0.059577 5.88107C0.109577 4.81607 0.277577 4.09107 0.524577 3.45307C0.77595 2.78569 1.17054 2.18151 1.68058 1.68307C2.17947 1.17382 2.78354 0.779641 3.45058 0.528069C4.08858 0.281069 4.81358 0.113069 5.87858 0.0630685L6.59058 0.0330686L6.78458 0.0280687C7.51376 0.00964151 8.24316 0.00130728 8.97258 0.0030686L11.0286 0.00406853ZM10.0006 5.00407C9.33808 4.9947 8.68033 5.11709 8.06555 5.36414C7.45077 5.61118 6.89122 5.97795 6.41942 6.44312C5.94762 6.9083 5.57298 7.46261 5.31726 8.07383C5.06155 8.68506 4.92987 9.34101 4.92987 10.0036C4.92987 10.6661 5.06155 11.3221 5.31726 11.9333C5.57298 12.5445 5.94762 13.0988 6.41942 13.564C6.89122 14.0292 7.45077 14.396 8.06555 14.643C8.68033 14.89 9.33808 15.0124 10.0006 15.0031C11.3267 15.0031 12.5984 14.4763 13.5361 13.5386C14.4738 12.6009 15.0006 11.3292 15.0006 10.0031C15.0006 8.67699 14.4738 7.40522 13.5361 6.46753C12.5984 5.52985 11.3267 5.00407 10.0006 5.00407ZM10.0006 7.00407C10.3991 6.99673 10.7951 7.06887 11.1654 7.21628C11.5357 7.36369 11.8729 7.58341 12.1574 7.86261C12.4418 8.14182 12.6678 8.4749 12.822 8.84241C12.9763 9.20992 13.0558 9.60448 13.0558 10.0031C13.0559 10.4016 12.9766 10.7962 12.8224 11.1638C12.6683 11.5313 12.4424 11.8645 12.1581 12.1438C11.8737 12.4231 11.5366 12.6429 11.1663 12.7905C10.796 12.938 10.4001 13.0103 10.0016 13.0031C9.20593 13.0031 8.44287 12.687 7.88026 12.1244C7.31765 11.5618 7.00158 10.7987 7.00158 10.0031C7.00158 9.20742 7.31765 8.44436 7.88026 7.88175C8.44287 7.31914 9.20593 7.00307 10.0016 7.00307L10.0006 7.00407ZM15.2506 3.50407C14.928 3.51698 14.6229 3.65422 14.3992 3.88704C14.1755 4.11986 14.0506 4.4302 14.0506 4.75307C14.0506 5.07593 14.1755 5.38628 14.3992 5.6191C14.6229 5.85192 14.928 5.98916 15.2506 6.00207C15.5821 6.00207 15.9 5.87037 16.1345 5.63595C16.3689 5.40153 16.5006 5.08359 16.5006 4.75207C16.5006 4.42055 16.3689 4.10261 16.1345 3.86819C15.9 3.63376 15.5821 3.50207 15.2506 3.50207V3.50407Z" fill="white"/>
</svg>
