<svg width="107" height="39" viewBox="0 0 107 39" fill="none" xmlns="http://www.w3.org/2000/svg">
<path d="M0.64 14.3916V13.2716L8.2 4.3116H0.64V3.1916H9.696V4.3116L2.136 13.2716H9.696V14.3916H0.64ZM4.552 2.3116L3.008 0.00760078H3.752L5.168 1.6316L6.552 0.00760078H7.304L5.776 2.3116H4.552ZM11.2881 6.3916H12.4081V14.3916H11.2881V6.3916ZM11.8561 4.9916C11.6748 4.9916 11.5201 4.93293 11.3921 4.8156C11.2695 4.69293 11.2081 4.54093 11.2081 4.3596C11.2081 4.17827 11.2695 4.02893 11.3921 3.9116C11.5201 3.78893 11.6748 3.7276 11.8561 3.7276C12.0321 3.7276 12.1815 3.78893 12.3041 3.9116C12.4321 4.02893 12.4961 4.17827 12.4961 4.3596C12.4961 4.54093 12.4348 4.69293 12.3121 4.8156C12.1895 4.93293 12.0375 4.9916 11.8561 4.9916ZM20.847 7.5116L15.599 13.2716H20.847V14.3916H14.015V13.2716L19.263 7.5116H14.015V6.3916H20.847V7.5116ZM16.815 5.5116L15.271 3.2076H16.015L17.431 4.8316L18.815 3.2076H19.567L18.039 5.5116H16.815ZM28.6924 14.3916H27.4044L25.1644 10.5276L23.5644 12.4396V14.3916H22.4444V2.3916H23.5644V10.6956L27.1724 6.3916H28.6364L25.9244 9.6156L28.6924 14.3916ZM33.2144 14.5996C32.4784 14.5996 31.8064 14.4103 31.1984 14.0316C30.5957 13.6529 30.113 13.1463 29.7504 12.5116C29.393 11.8716 29.2144 11.1649 29.2144 10.3916C29.2144 9.80493 29.3184 9.25827 29.5264 8.7516C29.7344 8.2396 30.0197 7.7916 30.3824 7.4076C30.7504 7.01827 31.177 6.71427 31.6624 6.4956C32.1477 6.27693 32.665 6.1676 33.2144 6.1676C33.9504 6.1676 34.6197 6.35693 35.2224 6.7356C35.8304 7.11427 36.313 7.6236 36.6704 8.2636C37.033 8.9036 37.2144 9.61293 37.2144 10.3916C37.2144 10.9729 37.1104 11.5169 36.9024 12.0236C36.6944 12.5303 36.4064 12.9783 36.0384 13.3676C35.6757 13.7516 35.2517 14.0529 34.7664 14.2716C34.2864 14.4903 33.769 14.5996 33.2144 14.5996ZM33.2144 13.4796C33.7584 13.4796 34.2464 13.3383 34.6784 13.0556C35.1157 12.7676 35.4597 12.3889 35.7104 11.9196C35.9664 11.4503 36.0944 10.9409 36.0944 10.3916C36.0944 9.8316 35.9664 9.31693 35.7104 8.8476C35.4544 8.37293 35.1077 7.99427 34.6704 7.7116C34.2384 7.42893 33.753 7.2876 33.2144 7.2876C32.6704 7.2876 32.1797 7.4316 31.7424 7.7196C31.3104 8.00227 30.9664 8.37827 30.7104 8.8476C30.4597 9.31693 30.3344 9.8316 30.3344 10.3916C30.3344 10.9676 30.465 11.4903 30.7264 11.9596C30.9877 12.4236 31.337 12.7943 31.7744 13.0716C32.2117 13.3436 32.6917 13.4796 33.2144 13.4796ZM42.0896 14.3916H40.6656L37.7456 6.3676H38.9376L41.3776 13.0796L43.8176 6.3676H45.0096L42.0896 14.3916ZM52.5985 6.3916H53.7185V14.3916H52.5985L52.5585 12.9036C52.2972 13.4103 51.9318 13.8209 51.4625 14.1356C50.9932 14.4449 50.4332 14.5996 49.7825 14.5996C49.1958 14.5996 48.6465 14.4903 48.1345 14.2716C47.6225 14.0476 47.1718 13.7409 46.7825 13.3516C46.3932 12.9623 46.0892 12.5116 45.8705 11.9996C45.6518 11.4876 45.5425 10.9383 45.5425 10.3516C45.5425 9.7756 45.6492 9.23427 45.8625 8.7276C46.0812 8.22093 46.3798 7.7756 46.7585 7.3916C47.1425 7.0076 47.5852 6.70893 48.0865 6.4956C48.5932 6.27693 49.1345 6.1676 49.7105 6.1676C50.3772 6.1676 50.9585 6.3276 51.4545 6.6476C51.9505 6.96227 52.3452 7.3756 52.6385 7.8876L52.5985 6.3916ZM49.7585 13.5116C50.3292 13.5116 50.8198 13.3729 51.2305 13.0956C51.6412 12.8129 51.9558 12.4343 52.1745 11.9596C52.3985 11.4849 52.5105 10.9623 52.5105 10.3916C52.5105 9.80493 52.3985 9.27693 52.1745 8.8076C51.9505 8.33293 51.6332 7.95693 51.2225 7.6796C50.8118 7.40227 50.3238 7.2636 49.7585 7.2636C49.1932 7.2636 48.6758 7.40493 48.2065 7.6876C47.7425 7.96493 47.3718 8.34093 47.0945 8.8156C46.8225 9.29027 46.6865 9.8156 46.6865 10.3916C46.6865 10.9729 46.8278 11.5009 47.1105 11.9756C47.3932 12.4449 47.7665 12.8183 48.2305 13.0956C48.6998 13.3729 49.2092 13.5116 49.7585 13.5116ZM62.4351 14.5996C61.7525 14.5996 61.1311 14.4343 60.5711 14.1036C60.0165 13.7729 59.5765 13.3303 59.2511 12.7756C58.9258 12.2156 58.7631 11.6023 58.7631 10.9356H59.8831C59.8831 11.3996 59.9978 11.8263 60.2271 12.2156C60.4565 12.5996 60.7631 12.9063 61.1471 13.1356C61.5365 13.3649 61.9658 13.4796 62.4351 13.4796C62.8991 13.4796 63.3231 13.3649 63.7071 13.1356C64.0911 12.9063 64.3978 12.5996 64.6271 12.2156C64.8618 11.8263 64.9791 11.3996 64.9791 10.9356C64.9791 10.4663 64.8671 10.0396 64.6431 9.6556C64.4245 9.26627 64.1125 8.95693 63.7071 8.7276C63.3071 8.49293 62.8298 8.3756 62.2751 8.3756H59.5551L60.6111 3.1916H65.8511V4.3116H61.5151L60.9311 7.2556L62.2351 7.2636C62.9978 7.27427 63.6671 7.43693 64.2431 7.7516C64.8245 8.06627 65.2778 8.49827 65.6031 9.0476C65.9338 9.5916 66.0991 10.2209 66.0991 10.9356C66.0991 11.4369 66.0031 11.9089 65.8111 12.3516C65.6245 12.7943 65.3605 13.1863 65.0191 13.5276C64.6831 13.8636 64.2938 14.1276 63.8511 14.3196C63.4138 14.5063 62.9418 14.5996 62.4351 14.5996ZM71.3541 14.5996C70.6821 14.5996 70.0821 14.4503 69.5541 14.1516C69.0261 13.8476 68.5755 13.4289 68.2021 12.8956C67.8288 12.3623 67.5435 11.7463 67.3461 11.0476C67.1541 10.3436 67.0581 9.5916 67.0581 8.7916C67.0581 7.9916 67.1541 7.2396 67.3461 6.5356C67.5435 5.8316 67.8288 5.2156 68.2021 4.6876C68.5755 4.15427 69.0261 3.73827 69.5541 3.4396C70.0821 3.1356 70.6821 2.9836 71.3541 2.9836C72.0208 2.9836 72.6181 3.1356 73.1461 3.4396C73.6741 3.73827 74.1221 4.15427 74.4901 4.6876C74.8581 5.2156 75.1381 5.8316 75.3301 6.5356C75.5275 7.2396 75.6261 7.9916 75.6261 8.7916C75.6261 9.5916 75.5275 10.3436 75.3301 11.0476C75.1381 11.7463 74.8581 12.3623 74.4901 12.8956C74.1221 13.4289 73.6741 13.8476 73.1461 14.1516C72.6181 14.4503 72.0208 14.5996 71.3541 14.5996ZM71.3541 13.4796C72.0581 13.4796 72.6475 13.2636 73.1221 12.8316C73.6021 12.3996 73.9621 11.8289 74.2021 11.1196C74.4421 10.4049 74.5621 9.62893 74.5621 8.7916C74.5621 7.90627 74.4368 7.1116 74.1861 6.4076C73.9408 5.69827 73.5781 5.13827 73.0981 4.7276C72.6235 4.3116 72.0421 4.1036 71.3541 4.1036C70.8101 4.1036 70.3355 4.22893 69.9301 4.4796C69.5248 4.73027 69.1888 5.07427 68.9221 5.5116C68.6555 5.94893 68.4555 6.45027 68.3221 7.0156C68.1888 7.5756 68.1221 8.1676 68.1221 8.7916C68.1221 9.63427 68.2448 10.4129 68.4901 11.1276C68.7355 11.8369 69.0981 12.4076 69.5781 12.8396C70.0581 13.2663 70.6501 13.4796 71.3541 13.4796ZM81.5814 14.3916V11.2476H76.7494V10.1116L81.2934 3.1916H82.7014V10.1276H83.8774V11.2476H82.7014V14.3916H81.5814ZM78.0774 10.1116L81.5814 10.1276L81.5574 4.7916L78.0774 10.1116ZM4.232 38.5996C3.54933 38.5996 2.928 38.4343 2.368 38.1036C1.81333 37.7729 1.37333 37.3303 1.048 36.7756C0.722667 36.2156 0.56 35.6023 0.56 34.9356H1.68C1.68 35.3996 1.79467 35.8263 2.024 36.2156C2.25333 36.5996 2.56 36.9063 2.944 37.1356C3.33333 37.3649 3.76267 37.4796 4.232 37.4796C4.696 37.4796 5.12 37.3649 5.504 37.1356C5.888 36.9063 6.19467 36.5996 6.424 36.2156C6.65867 35.8263 6.776 35.3996 6.776 34.9356C6.776 34.4663 6.664 34.0396 6.44 33.6556C6.22133 33.2663 5.90933 32.9569 5.504 32.7276C5.104 32.4929 4.62667 32.3756 4.072 32.3756H1.352L2.408 27.1916H7.648V28.3116H3.312L2.728 31.2556L4.032 31.2636C4.79467 31.2743 5.464 31.4369 6.04 31.7516C6.62133 32.0663 7.07467 32.4983 7.4 33.0476C7.73067 33.5916 7.896 34.2209 7.896 34.9356C7.896 35.4369 7.8 35.9089 7.608 36.3516C7.42133 36.7943 7.15733 37.1863 6.816 37.5276C6.48 37.8636 6.09067 38.1276 5.648 38.3196C5.21067 38.5063 4.73867 38.5996 4.232 38.5996ZM14.3314 38.3916V35.2476H9.49938V34.1116L14.0434 27.1916H15.4514V34.1276H16.6274V35.2476H15.4514V38.3916H14.3314ZM10.8274 34.1116L14.3314 34.1276L14.3074 28.7916L10.8274 34.1116ZM19.4338 38.3916V28.3116H18.2338L18.5538 27.1916H20.5538V38.3916H19.4338ZM30.4479 38.5996C29.7759 38.5996 29.1759 38.4503 28.6479 38.1516C28.1199 37.8476 27.6692 37.4289 27.2959 36.8956C26.9225 36.3623 26.6372 35.7463 26.4399 35.0476C26.2479 34.3436 26.1519 33.5916 26.1519 32.7916C26.1519 31.9916 26.2479 31.2396 26.4399 30.5356C26.6372 29.8316 26.9225 29.2156 27.2959 28.6876C27.6692 28.1543 28.1199 27.7383 28.6479 27.4396C29.1759 27.1356 29.7759 26.9836 30.4479 26.9836C31.1145 26.9836 31.7119 27.1356 32.2399 27.4396C32.7679 27.7383 33.2159 28.1543 33.5839 28.6876C33.9519 29.2156 34.2319 29.8316 34.4239 30.5356C34.6212 31.2396 34.7199 31.9916 34.7199 32.7916C34.7199 33.5916 34.6212 34.3436 34.4239 35.0476C34.2319 35.7463 33.9519 36.3623 33.5839 36.8956C33.2159 37.4289 32.7679 37.8476 32.2399 38.1516C31.7119 38.4503 31.1145 38.5996 30.4479 38.5996ZM30.4479 37.4796C31.1519 37.4796 31.7412 37.2636 32.2159 36.8316C32.6959 36.3996 33.0559 35.8289 33.2959 35.1196C33.5359 34.4049 33.6559 33.6289 33.6559 32.7916C33.6559 31.9063 33.5305 31.1116 33.2799 30.4076C33.0345 29.6983 32.6719 29.1383 32.1919 28.7276C31.7172 28.3116 31.1359 28.1036 30.4479 28.1036C29.9039 28.1036 29.4292 28.2289 29.0239 28.4796C28.6185 28.7303 28.2825 29.0743 28.0159 29.5116C27.7492 29.9489 27.5492 30.4503 27.4159 31.0156C27.2825 31.5756 27.2159 32.1676 27.2159 32.7916C27.2159 33.6343 27.3385 34.4129 27.5839 35.1276C27.8292 35.8369 28.1919 36.4076 28.6719 36.8396C29.1519 37.2663 29.7439 37.4796 30.4479 37.4796ZM37.0431 38.3916V28.3116H35.8431L36.1631 27.1916H38.1631V38.3916H37.0431ZM44.2413 33.0316H49.3613V34.1516H44.2413V33.0316ZM63.6039 27.1916V28.3116H59.7639V38.3916H58.6439V28.3116H54.8119V27.1916H63.6039ZM63.8506 38.3916V30.3916H64.9706V31.4956C65.2533 31.0903 65.6213 30.7676 66.0746 30.5276C66.528 30.2876 67.0213 30.1676 67.5546 30.1676C67.864 30.1676 68.1626 30.2076 68.4506 30.2876L67.9946 31.3996C67.7706 31.3303 67.552 31.2956 67.3386 31.2956C66.9066 31.2956 66.5093 31.4023 66.1466 31.6156C65.7893 31.8289 65.504 32.1143 65.2906 32.4716C65.0773 32.8289 64.9706 33.2263 64.9706 33.6636V38.3916H63.8506ZM69.0931 35.3276V30.3916H70.2131V35.1036C70.2131 35.5409 70.3198 35.9383 70.5331 36.2956C70.7465 36.6529 71.0318 36.9383 71.3891 37.1516C71.7518 37.3649 72.1491 37.4716 72.5811 37.4716C73.0185 37.4716 73.4131 37.3649 73.7651 37.1516C74.1225 36.9383 74.4078 36.6529 74.6211 36.2956C74.8345 35.9383 74.9411 35.5409 74.9411 35.1036V30.3916H76.0611L76.0691 38.3916H74.9491L74.9411 37.2716C74.6585 37.6769 74.2905 37.9996 73.8371 38.2396C73.3891 38.4796 72.8985 38.5996 72.3651 38.5996C71.7625 38.5996 71.2131 38.4529 70.7171 38.1596C70.2211 37.8663 69.8265 37.4716 69.5331 36.9756C69.2398 36.4796 69.0931 35.9303 69.0931 35.3276ZM81.7511 31.5116H79.8391L79.8311 38.3916H78.7111L78.7191 31.5116H77.2711V30.3916H78.7191L78.7111 27.8796H79.8311L79.8391 30.3916H81.7511V31.5116ZM90.1548 33.4396V38.3916H89.0348V33.6636C89.0348 33.2263 88.9281 32.8289 88.7148 32.4716C88.5014 32.1143 88.2161 31.8289 87.8588 31.6156C87.5014 31.4023 87.1041 31.2956 86.6668 31.2956C86.2348 31.2956 85.8374 31.4023 85.4748 31.6156C85.1174 31.8289 84.8321 32.1143 84.6188 32.4716C84.4054 32.8289 84.2988 33.2263 84.2988 33.6636V38.3916H83.1788V30.3916H84.2988V31.4956C84.5814 31.0903 84.9494 30.7676 85.4028 30.5276C85.8561 30.2876 86.3494 30.1676 86.8828 30.1676C87.4854 30.1676 88.0348 30.3143 88.5308 30.6076C89.0268 30.9009 89.4214 31.2956 89.7148 31.7916C90.0081 32.2876 90.1548 32.8369 90.1548 33.4396ZM95.1206 38.5996C94.3846 38.5996 93.7126 38.4103 93.1046 38.0316C92.502 37.6529 92.0193 37.1463 91.6566 36.5116C91.2993 35.8716 91.1206 35.1649 91.1206 34.3916C91.1206 33.8049 91.2246 33.2583 91.4326 32.7516C91.6406 32.2396 91.926 31.7916 92.2886 31.4076C92.6566 31.0183 93.0833 30.7143 93.5686 30.4956C94.054 30.2769 94.5713 30.1676 95.1206 30.1676C95.8566 30.1676 96.526 30.3569 97.1286 30.7356C97.7366 31.1143 98.2193 31.6236 98.5766 32.2636C98.9393 32.9036 99.1206 33.6129 99.1206 34.3916C99.1206 34.9729 99.0166 35.5169 98.8086 36.0236C98.6006 36.5303 98.3126 36.9783 97.9446 37.3676C97.582 37.7516 97.158 38.0529 96.6726 38.2716C96.1926 38.4903 95.6753 38.5996 95.1206 38.5996ZM95.1206 37.4796C95.6646 37.4796 96.1526 37.3383 96.5846 37.0556C97.022 36.7676 97.366 36.3889 97.6166 35.9196C97.8726 35.4503 98.0006 34.9409 98.0006 34.3916C98.0006 33.8316 97.8726 33.3169 97.6166 32.8476C97.3606 32.3729 97.014 31.9943 96.5766 31.7116C96.1446 31.4289 95.6593 31.2876 95.1206 31.2876C94.5766 31.2876 94.086 31.4316 93.6486 31.7196C93.2166 32.0023 92.8726 32.3783 92.6166 32.8476C92.366 33.3169 92.2406 33.8316 92.2406 34.3916C92.2406 34.9676 92.3713 35.4903 92.6326 35.9596C92.894 36.4236 93.2433 36.7943 93.6806 37.0716C94.118 37.3436 94.598 37.4796 95.1206 37.4796ZM103.996 38.3916H102.572L99.6519 30.3676H100.844L103.284 37.0796L105.724 30.3676H106.916L103.996 38.3916Z" fill="white"/>
</svg>
