<svg width="24" height="25" viewBox="0 0 24 25" fill="none" xmlns="http://www.w3.org/2000/svg">
<path d="M23.8984 10.9348H13.5653H13.5653V0.601578C13.0529 0.534875 12.5305 0.5 12 0.5C11.4694 0.5 10.9471 0.534875 10.4348 0.601578V10.9347V10.9347H0.101578C0.034875 11.4471 0 11.9695 0 12.5C0 13.0306 0.034875 13.5529 0.101578 14.0652H10.4347H10.4347V24.3984C10.9471 24.4651 11.4694 24.5 12 24.5C12.5305 24.5 13.0529 24.4652 13.5652 24.3984V14.0653V14.0653H23.8984C23.9651 13.5529 24 13.0306 24 12.5C24 11.9695 23.9651 11.4471 23.8984 10.9348Z" fill="#D80027"/>
<path d="M15.1304 15.6312L20.4852 20.986C20.7315 20.7398 20.9664 20.4824 21.1906 20.2156L16.6061 15.6311H15.1304V15.6312Z" fill="#D80027"/>
<path d="M8.86951 15.6311H8.86941L3.51465 20.9859C3.76084 21.2322 4.01823 21.4671 4.28504 21.6912L8.86951 17.1067V15.6311Z" fill="#D80027"/>
<path d="M8.86927 9.36911V9.36902L3.51446 4.01416C3.26818 4.26035 3.03324 4.51774 2.80908 4.78455L7.3936 9.36907H8.86927V9.36911Z" fill="#D80027"/>
<path d="M15.1304 9.37029L20.4852 4.01539C20.239 3.76911 19.9817 3.53417 19.7148 3.31006L15.1304 7.89457V9.37029Z" fill="#D80027"/>
</svg>
