<svg width="116" height="92" viewBox="0 0 116 92" fill="none" xmlns="http://www.w3.org/2000/svg">
<g id="Group">
<g id="Background">
<path id="Vector" d="M58 77.5576L44.832 91.6687H71.166L58 77.5576Z" fill="url(#paint0_linear_33_2025)"/>
<path id="Vector_2" d="M0.0083211 91.5867L27.6943 61.6356C27.5882 60.9992 27.49 60.3627 27.47 59.7161C26.823 51.9779 29.3428 44.1292 34.0319 37.9892C39.4281 30.7911 47.9631 25.7414 57.0509 25.5085C62.0845 25.3016 67.1482 26.4803 71.6009 28.8415C80.6166 33.4615 87.0023 42.6715 88.4906 52.6806C88.9993 55.7266 88.9393 58.8287 88.5346 61.8826L116 91.5947C115.988 89.0428 115.916 86.4908 115.93 83.9388C115.936 78.0719 115.908 72.2029 115.914 66.334C115.882 61.6397 116.104 56.9272 115.56 52.251C115.095 47.5446 114.007 42.9004 112.433 38.447C109.292 29.9076 104.2 22.1011 97.6625 15.7845C90.4475 8.95978 81.508 3.87792 71.8233 1.60704C61.4155 -0.884693 50.3327 -0.461038 40.1412 2.79569C29.9858 6.1508 20.8239 12.3972 13.8774 20.535C7.55778 27.8135 3.18114 36.7524 1.27424 46.2114C0.0804306 51.3976 -0.0397518 56.7526 0.0163333 62.0593C0.0123272 71.8998 -0.00770321 81.7462 0.0083211 91.5867Z" fill="url(#paint1_linear_33_2025)"/>
</g>
<g id="Mountains">
<path id="Vector_3" d="M35.7842 91.6688H44.918L57.9999 77.5154L71.0817 91.6688H80.2156L57.9999 67.6348L35.7842 91.6688Z" fill="white"/>
<path id="Vector_4" d="M58 28.9235L0 91.6687H21.729L57.976 52.4575L94.223 91.6687H116L58 28.9235Z" fill="white"/>
</g>
</g>
<defs>
<linearGradient id="paint0_linear_33_2025" x1="44.832" y1="84.6131" x2="71.166" y2="84.6131" gradientUnits="userSpaceOnUse">
<stop stop-color="#3494E6"/>
<stop offset="1" stop-color="#EC6EAD"/>
</linearGradient>
<linearGradient id="paint1_linear_33_2025" x1="0.00219727" y1="45.799" x2="116" y2="45.799" gradientUnits="userSpaceOnUse">
<stop stop-color="#3494E6"/>
<stop offset="1" stop-color="#EC6EAD"/>
</linearGradient>
</defs>
</svg>
