<svg width="93" height="42" viewBox="0 0 93 42" fill="none" xmlns="http://www.w3.org/2000/svg">
<path d="M0.952148 17.3968V0.317139H7.08796C8.02085 0.317139 8.86562 0.549336 9.62228 1.01234C10.3789 1.47534 10.979 2.09824 11.4195 2.87826C11.8615 3.65966 12.0825 4.51754 12.0825 5.45189C12.0825 6.38624 11.8559 7.28027 11.4013 8.05611C10.9468 8.83335 10.3398 9.45068 9.57893 9.91091C8.81807 10.3697 7.98728 10.6005 7.08796 10.6005H3.94662V17.3954H0.952148V17.3968ZM3.94662 7.62509H6.76907C7.19426 7.62509 7.58307 7.51942 7.93413 7.30808C8.28659 7.09674 8.56631 6.8117 8.77471 6.45437C8.98311 6.09704 9.088 5.69799 9.088 5.25862C9.088 4.81926 8.98311 4.40909 8.77471 4.05037C8.56631 3.69303 8.28659 3.408 7.93413 3.19666C7.58168 2.98532 7.19426 2.87965 6.76907 2.87965H3.94662V7.62509Z" fill="white"/>
<path d="M13.481 17.3968V0.317139H24.2546V3.29399H16.474V6.75887H22.6462V9.73572H16.474V14.42H24.2546V17.3968H13.481Z" fill="white"/>
<path d="M25.9008 17.3968V0.317139H29.1401L36.392 12.016V0.317139H39.3864V17.3954H36.1584L28.8939 5.6966V17.3954H25.8994L25.9008 17.3968Z" fill="white"/>
<path d="M47.4608 17.7141C46.5111 17.7141 45.602 17.5653 44.7306 17.2691C43.8593 16.973 43.097 16.5461 42.4425 15.9886C41.7879 15.431 41.318 14.7623 41.0312 13.9822L43.8411 12.9575C43.9558 13.2829 44.1894 13.579 44.5404 13.8474C44.8915 14.1157 45.3209 14.3312 45.8286 14.4939C46.3363 14.6566 46.8803 14.7386 47.4608 14.7386C48.0412 14.7386 48.616 14.6468 49.1363 14.4647C49.6552 14.2812 50.0748 14.0253 50.3937 13.6958C50.7126 13.3663 50.872 12.9825 50.872 12.5432C50.872 12.1038 50.7042 11.7284 50.3685 11.4392C50.0329 11.15 49.6035 10.9206 49.0804 10.7496C48.5573 10.5785 48.0174 10.4492 47.4608 10.3589C46.2412 10.1725 45.1502 9.88334 44.1852 9.49263C43.2201 9.10193 42.4565 8.56106 41.897 7.87003C41.3376 7.179 41.0564 6.28359 41.0564 5.18656C41.0564 4.15349 41.3543 3.25112 41.9516 2.47806C42.5488 1.705 43.3348 1.10295 44.3082 0.671927C45.2817 0.240903 46.3335 0.0253906 47.4622 0.0253906C48.4035 0.0253906 49.3112 0.171383 50.1867 0.464758C51.0623 0.758133 51.8287 1.18499 52.4875 1.74532C53.1462 2.30704 53.619 2.98138 53.9043 3.77113L51.0818 4.78334C50.9671 4.45799 50.7336 4.16183 50.3825 3.8921C50.0301 3.62375 49.6007 3.40963 49.0944 3.25112C48.5867 3.09262 48.0426 3.01336 47.4622 3.01336C46.8817 3.00502 46.3307 3.09679 45.8118 3.28727C45.2915 3.47915 44.8691 3.73637 44.5418 4.06173C44.2145 4.38708 44.0509 4.7611 44.0509 5.18378C44.0509 5.72882 44.2048 6.13898 44.5111 6.41567C44.8174 6.69236 45.2286 6.89397 45.7446 7.01911C46.2607 7.14564 46.8328 7.26104 47.4622 7.36671C48.6077 7.54607 49.6664 7.8464 50.6413 8.26908C51.6147 8.69176 52.3966 9.25487 52.9854 9.95842C53.5742 10.662 53.8693 11.5212 53.8693 12.539C53.8693 13.5568 53.5756 14.4772 52.9854 15.2531C52.3966 16.0303 51.6147 16.6337 50.6413 17.0648C49.6678 17.4958 48.6077 17.7113 47.4622 17.7113L47.4608 17.7141Z" fill="white"/>
<path d="M55.9155 17.3968V0.317139H58.91V17.3954H55.9155V17.3968Z" fill="white"/>
<path d="M69.1441 17.7137C67.9818 17.7137 66.8895 17.4843 65.8671 17.0241C64.8447 16.5652 63.944 15.9284 63.1677 15.1151C62.3901 14.3017 61.7817 13.3604 61.3397 12.2911C60.8977 11.2219 60.6768 10.0776 60.6768 8.85686C60.6768 7.63608 60.8977 6.49317 61.3397 5.42256C61.7817 4.35335 62.3915 3.41204 63.1677 2.59866C63.9454 1.78528 64.8447 1.14847 65.8671 0.689639C66.8895 0.230806 67.9818 0 69.1441 0C70.3063 0 71.4099 0.229416 72.4323 0.689639C73.4547 1.14847 74.3554 1.78528 75.1316 2.59866C75.9079 3.41204 76.5163 4.35335 76.9541 5.42256C77.3918 6.49178 77.61 7.63608 77.61 8.85686C77.61 10.0776 77.3918 11.2219 76.9541 12.2911C76.5163 13.3604 75.9093 14.3017 75.1316 15.1151C74.354 15.9284 73.4547 16.5652 72.4323 17.0241C71.4099 17.4829 70.3133 17.7137 69.1441 17.7137ZM69.1441 14.7369C69.8966 14.7369 70.6043 14.5825 71.2672 14.2739C71.9302 13.9652 72.5134 13.5397 73.0155 12.9989C73.519 12.458 73.9106 11.8337 74.1932 11.126C74.4757 10.4183 74.6169 9.6619 74.6169 8.85686C74.6169 8.05181 74.4743 7.29404 74.1876 6.58216C73.9008 5.87027 73.5064 5.24598 73.0029 4.70929C72.4994 4.17259 71.919 3.74991 71.2602 3.44124C70.6015 3.13257 69.8966 2.97824 69.1441 2.97824C68.3916 2.97824 67.6839 3.13257 67.021 3.44124C66.358 3.74991 65.7748 4.17538 65.2727 4.71624C64.7692 5.25711 64.3761 5.8814 64.095 6.58911C63.8125 7.29683 63.6712 8.0532 63.6712 8.85825C63.6712 9.66329 63.8139 10.4322 64.1006 11.1399C64.3873 11.8476 64.7818 12.4719 65.2853 13.0128C65.7888 13.5536 66.3692 13.9763 67.028 14.2808C67.6867 14.5853 68.3916 14.7383 69.1455 14.7383L69.1441 14.7369Z" fill="white"/>
<path d="M79.0097 17.3968V0.317139H82.2489L89.5009 12.016V0.317139H92.4953V17.3954H89.2673L82.0028 5.6966V17.3954H79.0083L79.0097 17.3968Z" fill="white"/>
<path d="M7.60545 22.5625H11.2853L17.9512 40.7879H14.5595L13.3804 37.5594H5.52289L4.34384 40.7879H0.952148L7.60545 22.5625ZM6.68795 34.3837H12.2014L9.43766 26.8714L6.68795 34.3837Z" fill="white"/>
<path d="M29.8088 22.5625V25.7396H24.203V40.7893H21.0086V25.7396H15.4028V22.5625H29.8074H29.8088Z" fill="white"/>
<path d="M31.9038 40.7879V22.5625H38.9361C39.932 22.5625 40.8299 22.81 41.6341 23.305C42.4369 23.8 43.0747 24.4618 43.546 25.2905C44.0174 26.1191 44.2538 27.0368 44.2538 28.0435C44.2538 28.868 44.1027 29.6257 43.802 30.3154C43.5013 31.005 43.0817 31.6015 42.5446 32.1048C42.0075 32.6082 41.3893 32.9905 40.6914 33.2505L45.0789 40.7879H41.3991L37.1557 33.5369H35.0997V40.7879H31.9052H31.9038ZM35.0983 30.3599H38.5683C39.0215 30.3599 39.4369 30.2472 39.8117 30.022C40.1865 29.7968 40.4886 29.4923 40.7152 29.1113C40.9418 28.7289 41.0551 28.3035 41.0551 27.8349C41.0551 27.3663 40.9418 26.9284 40.7152 26.546C40.4872 26.165 40.1865 25.8605 39.8117 25.6353C39.4369 25.41 39.0215 25.2974 38.5683 25.2974H35.0983V30.3613V30.3599Z" fill="white"/>
<path d="M47.6582 40.7879V22.5625H50.8541V40.7879H47.6582Z" fill="white"/>
<path d="M61.2108 41.1267C59.7436 41.1267 58.4583 40.7708 57.3534 40.0589C56.2484 39.347 55.3911 38.3904 54.7799 37.1891C54.1687 35.9878 53.8638 34.653 53.8638 33.1861V22.5635H57.0583V33.1861C57.0583 34.0538 57.2219 34.8505 57.5492 35.5749C57.8765 36.2992 58.3478 36.8763 58.9632 37.3059C59.5786 37.7355 60.3269 37.9497 61.2094 37.9497C62.0919 37.9497 62.85 37.7355 63.4612 37.3059C64.0724 36.8763 64.5368 36.2992 64.8556 35.5749C65.1745 34.8505 65.334 34.0538 65.334 33.1861V22.5635H68.5298V33.1861C68.5298 34.2887 68.355 35.319 68.0068 36.2784C67.6571 37.2378 67.1592 38.0817 66.513 38.8103C65.8668 39.5389 65.0962 40.1076 64.2011 40.5163C63.306 40.9237 62.3087 41.1281 61.2094 41.1281L61.2108 41.1267Z" fill="white"/>
<path d="M71.1509 40.7879L74.7132 22.5625H77.358L81.8239 34.2405L86.2897 22.5625H88.9345L92.4968 40.7879H89.2366L87.0366 29.5131L82.912 40.3708H80.7245L76.6 29.5131L74.4125 40.7879H71.1523H71.1509Z" fill="white"/>
</svg>
