<svg width="42" height="43" viewBox="0 0 42 43" fill="none" xmlns="http://www.w3.org/2000/svg">
<path fill-rule="evenodd" clip-rule="evenodd" d="M6.3 4.77104C5.74304 4.77104 5.2089 4.99229 4.81508 5.38612C4.42125 5.77995 4.2 6.31409 4.2 6.87104V36.271C4.2 36.828 4.42125 37.3621 4.81508 37.756C5.2089 38.1498 5.74305 38.371 6.3 38.371H35.7C36.2569 38.371 36.7911 38.1498 37.1849 37.756C37.5788 37.3621 37.8 36.828 37.8 36.271V6.87104C37.8 6.31409 37.5788 5.77995 37.1849 5.38612C36.7911 4.99229 36.257 4.77104 35.7 4.77104H6.3ZM1.84523 2.41627C3.02671 1.23479 4.62914 0.571045 6.3 0.571045H35.7C37.3709 0.571045 38.9733 1.23479 40.1548 2.41627C41.3362 3.59775 42 5.20018 42 6.87104V36.271C42 37.9419 41.3362 39.5443 40.1548 40.7258C38.9733 41.9073 37.3709 42.571 35.7 42.571H6.3C4.62914 42.571 3.02671 41.9073 1.84523 40.7258C0.663748 39.5443 0 37.9419 0 36.271V6.87104C0 5.20018 0.663748 3.59775 1.84523 2.41627Z" fill="#253871"/>
<path fill-rule="evenodd" clip-rule="evenodd" d="M12 11.971C12 10.6456 13.0633 9.57104 14.375 9.57104H23.875C25.7647 9.57104 27.5769 10.3296 28.9131 11.6799C30.2493 13.0301 31 14.8615 31 16.771C31 18.6806 30.2493 20.512 28.9131 21.8622C27.5769 23.2125 25.7647 23.971 23.875 23.971H16.75V31.171C16.75 32.4965 15.6867 33.571 14.375 33.571C13.0633 33.571 12 32.4965 12 31.171V11.971ZM16.75 19.171H23.875C24.5049 19.171 25.109 18.9182 25.5544 18.4681C25.9998 18.018 26.25 17.4076 26.25 16.771C26.25 16.1345 25.9998 15.5241 25.5544 15.074C25.109 14.6239 24.5049 14.371 23.875 14.371H16.75V19.171Z" fill="#253871"/>
</svg>
