<svg width="166" height="11" viewBox="0 0 166 11" fill="none" xmlns="http://www.w3.org/2000/svg">
<path d="M7.75306 0.200067V1.37607H4.49106V10.0001H3.31506V1.37607H0.0600586V0.200067H7.75306Z" fill="white"/>
<path d="M26.1684 10.0001V0.200067H29.6124C30.1351 0.200067 30.6064 0.3284 31.0264 0.585067C31.4511 0.841733 31.7871 1.1894 32.0344 1.62807C32.2864 2.06207 32.4124 2.5474 32.4124 3.08407C32.4124 3.5554 32.3191 3.98473 32.1324 4.37207C31.9458 4.7594 31.6891 5.08373 31.3624 5.34507C31.0404 5.60173 30.6741 5.77907 30.2634 5.87707L32.6434 10.0001H31.2854L28.9474 5.97507H27.3444V10.0001H26.1684ZM27.3444 4.79907H29.4934C29.8108 4.79907 30.1024 4.72207 30.3684 4.56807C30.6344 4.4094 30.8444 4.19707 30.9984 3.93107C31.1571 3.6604 31.2364 3.35707 31.2364 3.02107C31.2364 2.6804 31.1571 2.37707 30.9984 2.11107C30.8444 1.8404 30.6344 1.62807 30.3684 1.47407C30.1024 1.3154 29.8108 1.23607 29.4934 1.23607H27.3444V4.79907Z" fill="white"/>
<path d="M54.9988 10.1821C54.2148 10.1821 53.5335 9.99073 52.9548 9.60807C52.3808 9.2254 51.9375 8.71207 51.6248 8.06807C51.3168 7.4194 51.1628 6.70073 51.1628 5.91207V0.200067H52.3388V5.91207C52.3388 6.47207 52.4415 6.98773 52.6468 7.45907C52.8568 7.9304 53.1578 8.30607 53.5498 8.58607C53.9465 8.86607 54.4295 9.00607 54.9988 9.00607C55.5775 9.00607 56.0628 8.86607 56.4548 8.58607C56.8468 8.3014 57.1431 7.92573 57.3438 7.45907C57.5491 6.98773 57.6518 6.47207 57.6518 5.91207V0.200067H58.8278V5.91207C58.8278 6.50473 58.7391 7.06007 58.5618 7.57807C58.3845 8.0914 58.1278 8.54407 57.7918 8.93607C57.4605 9.32807 57.0591 9.63373 56.5878 9.85307C56.1165 10.0724 55.5868 10.1821 54.9988 10.1821Z" fill="white"/>
<path d="M84.9374 0.200067V1.37607H81.6754V10.0001H80.4994V1.37607H77.2444V0.200067H84.9374Z" fill="white"/>
<path d="M103.353 10.0001V0.200067H104.627L109.52 7.87207V0.200067H110.696V10.0001H109.429L104.529 2.32807V10.0001H103.353Z" fill="white"/>
<path d="M133.936 10.1821C133.273 10.1821 132.65 10.0514 132.067 9.79007C131.484 9.52407 130.97 9.15773 130.527 8.69107C130.084 8.2244 129.736 7.6854 129.484 7.07407C129.232 6.45807 129.106 5.80007 129.106 5.10007C129.106 4.40007 129.232 3.7444 129.484 3.13307C129.736 2.51707 130.084 1.97573 130.527 1.50907C130.97 1.0424 131.484 0.6784 132.067 0.417067C132.65 0.151067 133.273 0.0180664 133.936 0.0180664C134.603 0.0180664 135.229 0.151067 135.812 0.417067C136.395 0.6784 136.909 1.0424 137.352 1.50907C137.795 1.97573 138.141 2.51707 138.388 3.13307C138.64 3.7444 138.766 4.40007 138.766 5.10007C138.766 5.80007 138.64 6.45807 138.388 7.07407C138.141 7.6854 137.795 8.2244 137.352 8.69107C136.909 9.15773 136.395 9.52407 135.812 9.79007C135.229 10.0514 134.603 10.1821 133.936 10.1821ZM133.936 9.00607C134.445 9.00607 134.919 8.9034 135.357 8.69807C135.8 8.49273 136.188 8.2104 136.519 7.85107C136.855 7.48707 137.117 7.07173 137.303 6.60507C137.494 6.13373 137.59 5.63207 137.59 5.10007C137.59 4.56807 137.494 4.0664 137.303 3.59507C137.112 3.11907 136.848 2.70373 136.512 2.34907C136.181 1.98973 135.793 1.7074 135.35 1.50207C134.911 1.29673 134.44 1.19407 133.936 1.19407C133.427 1.19407 132.951 1.29673 132.508 1.50207C132.069 1.7074 131.682 1.99207 131.346 2.35607C131.015 2.7154 130.753 3.13073 130.562 3.60207C130.375 4.06873 130.282 4.56807 130.282 5.10007C130.282 5.63673 130.378 6.14073 130.569 6.61207C130.76 7.0834 131.022 7.49873 131.353 7.85807C131.689 8.2174 132.076 8.49973 132.515 8.70507C132.958 8.90573 133.432 9.00607 133.936 9.00607Z" fill="white"/>
<path d="M160.018 10.0001L156.462 0.200067H157.708L160.746 8.56507L163.791 0.200067H165.03L161.474 10.0001H160.018Z" fill="white"/>
</svg>
